<svg width="500" height="500" viewBox="0 0 500 500" fill="none" xmlns="http://www.w3.org/2000/svg">
<rect width="500" height="500" fill="#EBFF7A"/>
<path d="M295.264 339.325L300.382 331.534L313.816 328.293H318.08L321.55 324.884L331.601 324.971L339.055 327.554L345.746 335.616L351.607 347.297L356.145 360.091L360.031 378.368V388.513L355.952 410.404L348.945 419.999L335.905 427.154L317.18 425.79L308.867 420.381L303.384 412.873L299.568 396.465L300.731 389.737L298.575 384.43L294.2 378.368L292.061 371.468V365.04L295.264 339.325Z" fill="white"/>
<g filter="url(#filter0_d_936_1377)">
<path d="M288.163 101.284C293.486 92.6387 304.571 87.3158 319.649 94.1872C334.726 101.063 324.618 112.686 324.618 112.686L320.926 116.805C329.986 105.277 340.143 103.079 352.498 110.768C364.852 118.452 357.714 133.789 357.714 133.789L356.359 134.536C356.359 134.536 363.978 128.141 375.281 139.321C391.549 155.409 364.528 179.198 353.669 187.909C351.106 189.967 349.327 192.834 348.617 196.042L348.452 196.777C348.383 197.085 348.341 197.397 348.3 197.709C347.278 205.39 318.634 260.738 318.634 260.738C318.634 260.738 280.113 328.955 234.769 332.967C201.287 335.929 194.28 320.514 192.905 312.247C192.494 309.79 192.748 307.269 193.623 304.936C196.457 297.35 203.481 271.762 187.824 233.454C172.056 194.871 185.495 161.056 190.325 151.01C191.331 148.916 191.824 146.616 191.75 144.291C191.553 138.06 191.282 124.802 191.927 111.265C192.814 92.6387 203.661 72.5586 222.526 72.5381C245.982 72.5094 242.495 101.338 242.495 101.338C243.998 97.5879 245.14 95.522 245.14 95.522C245.14 95.522 258.443 72.2383 277.291 78.2266C296.139 84.2149 289.83 98.9145 289.83 98.9145" fill="#FFAFA3"/>
</g>
<path d="M305.799 145.922C305.799 145.922 311.565 127.805 320.622 116.272C329.682 104.743 339.839 102.546 352.194 110.234C364.548 117.923 357.41 133.255 357.41 133.255L356.055 134.003" stroke="black" stroke-width="5.33936" stroke-miterlimit="10" stroke-linecap="round"/>
<path d="M273.225 135.785C275.442 121.373 282.536 109.4 287.859 100.751C293.181 92.105 304.267 86.782 319.344 93.6534C334.422 100.529 324.314 112.152 324.314 112.152" stroke="black" stroke-width="5.33936" stroke-miterlimit="10" stroke-linecap="round"/>
<path d="M289.534 98.3762C289.534 98.3762 295.838 83.6724 276.994 77.6882C258.147 71.6999 244.843 94.9836 244.843 94.9836C244.843 94.9836 236.859 109.396 235.311 131.349" stroke="black" stroke-width="5.33936" stroke-miterlimit="10" stroke-linecap="round"/>
<path d="M242.195 100.8C242.195 100.8 245.682 71.9713 222.226 72C203.361 72.0206 192.514 92.1007 191.627 110.727C190.982 124.264 191.253 137.522 191.451 143.753C191.525 146.077 191.032 148.377 190.025 150.472C185.195 160.518 171.757 194.333 187.524 232.916C203.181 271.224 196.162 296.812 193.323 304.398C192.453 306.731 192.198 309.252 192.605 311.708C193.981 319.976 200.987 335.395 234.469 332.429C279.813 328.417 318.334 260.2 318.334 260.2C318.334 260.2 346.978 204.851 348.001 197.171C348.042 196.859 348.083 196.547 348.153 196.239L348.317 195.503C349.027 192.296 350.806 189.425 353.369 187.371C364.228 178.66 392.757 153.187 374.981 138.783C353.295 121.212 335.999 150.312 331.88 159.648" stroke="black" stroke-width="5.33936" stroke-miterlimit="10" stroke-linecap="round"/>
<path d="M219.116 134.643C219.116 134.643 231.676 129.369 244.363 134.643" stroke="black" stroke-width="5.33936" stroke-miterlimit="10" stroke-linecap="round"/>
<path d="M260.061 135.785C260.061 135.785 274.378 135.148 282.921 140.927" stroke="black" stroke-width="5.33936" stroke-miterlimit="10" stroke-linecap="round"/>
<path d="M296.483 145.104C296.483 145.104 306.53 146.39 312.058 151.914" stroke="black" stroke-width="5.33936" stroke-miterlimit="10" stroke-linecap="round"/>
<path d="M324.745 158.633C324.745 158.633 331.653 158.883 336.677 165.04" stroke="black" stroke-width="5.33936" stroke-miterlimit="10" stroke-linecap="round"/>
<path d="M220.936 155.29C220.936 155.29 226.41 148.624 236.699 151.914C246.987 155.208 247.723 164.211 247.723 164.211" stroke="black" stroke-width="5.33936" stroke-miterlimit="10" stroke-linecap="round"/>
<path d="M292.143 174.159C292.143 174.159 291.079 165.636 280.708 163.049C270.337 160.461 264.957 167.714 264.957 167.714" stroke="black" stroke-width="5.33936" stroke-miterlimit="10" stroke-linecap="round"/>
<path d="M281.714 187.811C278.173 180.787 276.884 179.715 260.972 180.282C250.199 180.668 242.942 177.723 239.381 175.781C238.157 175.115 237.118 174.179 236.173 173.156C231.409 167.989 212.425 171.731 219.494 188.665C227.593 208.067 249.834 208.318 261.375 207.422C273.98 206.449 285.377 195.08 281.714 187.811ZM231.191 195.643C231.191 195.643 251.698 182.418 269.869 199.853C269.869 199.853 249.029 209.069 231.191 195.643Z" fill="black"/>
<path d="M363.55 278.013C363.55 278.013 358.568 260.718 378.27 255.337C397.973 249.957 403.082 255.641 406.212 262.628C406.212 262.628 411.017 268.912 417.1 270.682C423.187 272.452 429.738 287.258 429.738 287.258C429.738 287.258 435.094 299.042 422.074 309.293L415.03 314.814C415.03 314.814 410.894 321.533 400.909 320.108C400.909 320.108 390.378 326.326 381.445 322.934C381.445 322.934 374.237 318.301 374.734 314.103C374.734 314.103 353.233 321.151 363.554 278.013H363.55Z" fill="white"/>
<path d="M101.244 194.715C101.244 194.715 103.129 216.056 128.454 207C153.779 197.947 144.455 184.94 144.455 184.94L149.331 170.388L156.531 157.906L162.531 148.295L158.494 140.512L146.912 139.054L137.551 145.983L135.001 149.006L131.887 139.087L131.123 122.354L127.369 115.085L119.981 112.177L115.257 114.234L110.801 117.163L107.626 123.32L100.722 116.461L91.8668 117.023L90.7908 121.262L87.3448 124.141L85.5828 135.502L76.2554 132.893L73.4009 136.561L69.1992 143.642L70.1973 155.183L78.921 162.695L80.6172 168.269L83.6442 171.904C83.6442 171.904 92.8156 193.06 101.252 194.719L101.244 194.715Z" fill="white"/>
<path d="M183.095 219.481C183.095 219.481 154.464 229.076 140.253 202.938C140.253 202.938 127.217 211.661 115.935 210.638C115.935 210.638 133.394 254.364 190 239.093L183.091 219.485L183.095 219.481Z" fill="black"/>
<path d="M334.466 233.934C334.466 233.934 372.097 232.061 387.954 251.377C387.954 251.377 372.959 255.271 364.745 264.787C364.745 264.787 353.499 252.675 324.375 256.138L334.466 233.934Z" fill="black"/>
<path d="M101.244 196.887C101.244 196.887 105.154 214.298 126.372 207.689C147.59 201.081 146.662 189.913 143.869 183.399" stroke="black" stroke-width="5.33936" stroke-miterlimit="10" stroke-linecap="round"/>
<path d="M125.135 192.559C125.135 192.559 142.714 189.323 146.414 178.837C146.414 178.837 149.174 173.851 149.503 168.861C149.832 163.874 159.479 154.95 159.479 154.95C159.479 154.95 166.963 146.813 158.494 140.513C150.029 134.212 137.165 141.761 133.555 153.639C133.555 153.639 110.784 160.4 112.686 175.691" stroke="black" stroke-width="5.33936" stroke-miterlimit="10" stroke-linecap="round"/>
<path d="M135.954 148.296C135.954 148.296 131.579 145.421 131.875 137.313C132.171 129.205 134.36 111.446 120.925 111.565C107.491 111.684 109.265 126.187 109.265 126.187C109.265 126.187 110.033 140.393 113.824 145.897" stroke="black" stroke-width="5.33936" stroke-miterlimit="10" stroke-linecap="round"/>
<path d="M109.187 124.231C109.187 124.231 105.532 114.464 95.1157 116.834C84.6958 119.2 86.2976 133.349 86.2976 133.349C86.2976 133.349 88.844 145.424 97.6047 154.542" stroke="black" stroke-width="5.33936" stroke-miterlimit="10" stroke-linecap="round"/>
<path d="M87.7722 138.233C87.7722 138.233 80.0137 130.704 73.9638 136.035C67.9139 141.366 69.0927 146.595 69.0927 146.595C69.0927 146.595 68.5793 153.363 83.5993 169.714C83.5993 169.714 92.6721 201.857 114.72 195.963" stroke="black" stroke-width="5.33936" stroke-miterlimit="10" stroke-linecap="round"/>
<path d="M95.6377 161.196C95.6377 161.196 102.415 148.033 120.593 147.876" stroke="black" stroke-width="5.33936" stroke-miterlimit="10" stroke-linecap="round"/>
<path d="M364.864 278.991C364.864 278.991 357.993 263.999 375.67 256.38C393.344 248.762 403.336 254.758 406.212 262.627" stroke="black" stroke-width="5.33936" stroke-miterlimit="10" stroke-linecap="round"/>
<path d="M380.369 269.121C380.369 269.121 356.749 279.614 360.494 301.222C360.494 301.222 361.521 312.443 369.325 314.456C372.894 315.376 376.636 313.901 378.87 310.969C380.952 308.233 382.028 304.118 375.859 299.723" stroke="black" stroke-width="5.33936" stroke-miterlimit="10" stroke-linecap="round"/>
<path d="M378.27 301.789C378.27 301.789 377.309 297.099 378.27 294.725" stroke="black" stroke-width="5.33936" stroke-miterlimit="10" stroke-linecap="round"/>
<path d="M375.567 313.729C375.567 313.729 376.734 324.03 386.254 324.03C395.775 324.03 401.882 319.061 404.885 305.605" stroke="black" stroke-width="5.33936" stroke-miterlimit="10" stroke-linecap="round"/>
<path d="M398.334 319.545C398.334 319.545 419.79 326.626 419.893 298.262" stroke="black" stroke-width="5.33936" stroke-miterlimit="10" stroke-linecap="round"/>
<path d="M417.864 310.755C417.864 310.755 436.519 305.523 429.393 286.285C427.627 281.52 424.702 277.261 420.948 273.836C415.773 269.108 406.889 263.083 396.498 264.792" stroke="black" stroke-width="5.33936" stroke-miterlimit="10" stroke-linecap="round"/>
<path d="M240.166 332.672C240.166 332.672 263.84 383.872 307.746 364.86C307.746 364.86 325.846 359.032 317.065 341.864C317.065 341.864 313.303 332.405 302.55 335.986C291.798 339.572 281.045 339.12 264.201 324.293L240.17 332.672H240.166Z" fill="black"/>
<path d="M295.494 337.645C295.494 337.645 300.924 324.839 316.338 328.774C316.338 328.774 328.142 321.393 338.147 326.971C348.148 332.544 363.283 370.096 360.31 395.183C357.332 420.27 338.969 431.914 320.277 426.829C301.585 421.744 297.975 400.592 300.106 391.902C300.106 391.902 296.336 386.981 297.318 380.422C297.318 380.422 291.654 376.836 291.945 368.955" stroke="black" stroke-width="5.33936" stroke-miterlimit="10" stroke-linecap="round"/>
<path d="M295.264 368.565C295.264 368.565 305.84 376.102 318.794 364.17C319.562 363.464 320.531 362.996 321.57 362.893C323.115 362.741 325.049 363.316 325.661 366.844C326.729 373.017 320.478 380.833 299.572 380.012" stroke="black" stroke-width="2.46432" stroke-miterlimit="10" stroke-linecap="round"/>
<path d="M298.574 382.344C298.574 382.344 308.641 390.546 322.338 379.469C323.148 378.811 324.15 378.405 325.189 378.372C326.741 378.319 328.631 379.017 329.017 382.578C329.686 388.804 322.942 396.205 302.135 394.041" stroke="black" stroke-width="2.46432" stroke-miterlimit="10" stroke-linecap="round"/>
<path d="M317.181 328.293C317.181 328.293 337.692 337.715 325.769 358.674" stroke="black" stroke-width="2.46432" stroke-miterlimit="10" stroke-linecap="round"/>
<path d="M324.363 326.585C324.363 326.585 344.611 335.678 349.425 376.442C354.238 417.206 329.176 420.541 315.594 422.763" stroke="black" stroke-width="2.46432" stroke-miterlimit="10" stroke-linecap="round"/>
<path d="M87.875 351.129C87.875 351.129 93.1979 318.547 134.04 333.402C134.04 333.402 144.226 329.41 149.372 335.76C149.372 335.76 162.794 323.935 176.036 341.099C189.278 358.263 186.785 361.964 186.785 361.964L188.649 370.223H195.348C195.348 370.223 201.25 386.853 189.487 401.886L180.197 416.536C180.197 416.536 90.7747 383.28 87.8791 351.125L87.875 351.129Z" fill="white"/>
<path d="M192.424 311.228C192.424 311.228 178.887 313.265 167.982 332.298C167.982 332.298 182.929 340.8 180.078 353.183C180.078 353.183 179.462 369.706 190.547 373.033L195.649 369.817C195.649 369.817 199.686 343.638 210.447 332.425C210.447 332.425 196.347 325.455 192.42 311.228H192.424Z" fill="black"/>
<path d="M176.565 354.846C176.565 354.846 183.917 349.745 173.415 338.343C162.913 326.942 150.312 335.493 150.312 335.493C142.361 331.891 135.912 334.643 135.912 334.643C120.843 327.767 109.955 328.63 102.282 332.244C90.0102 338.023 84.8803 353.15 91.5586 364.958C91.5915 365.015 92.0309 365.069 92.0638 365.126" stroke="black" stroke-width="5.33936" stroke-miterlimit="10"/>
<path d="M178.969 350.645C178.969 350.645 183.318 374.495 192.769 376.146" stroke="black" stroke-width="5.33936" stroke-miterlimit="10"/>
<path d="M190.107 375.041L191.882 370.786L193.303 371.296L195.648 369.817C195.648 369.817 203.271 382.894 191.27 401.048C191.27 401.048 189.183 409.11 181.084 415.859" stroke="black" stroke-width="5.33936" stroke-miterlimit="10"/>
<path d="M86.8311 359.767C85.4799 352.579 90.1826 348.02 97.3045 349.696C97.3743 349.712 97.4441 349.729 97.5099 349.745C109.211 352.595 129.464 364.896 141.461 380.496C152.234 394.501 177.399 409.718 182.43 412.68C183.33 413.209 184.012 414.076 184.217 415.103C184.525 416.623 183.798 418.508 178.364 418.598C169.534 418.742 92.458 389.72 86.8311 359.767Z" fill="black"/>
<path d="M94.126 337.305C94.126 337.305 112.929 336.89 132.557 353.109C152.185 369.329 170.816 397.96 190.584 403.016" stroke="black" stroke-width="2.46432" stroke-miterlimit="10" stroke-linecap="round"/>
<path d="M136.791 336.273C136.791 336.273 146.192 343.568 149.293 347.309C152.394 351.047 154.768 360.346 162.929 354.353C171.09 348.361 149.293 336.273 149.293 336.273" stroke="black" stroke-width="2.46432" stroke-miterlimit="10" stroke-linecap="round"/>
<path d="M163.246 347.31C163.246 347.31 167.813 358.711 176.668 353.425" stroke="black" stroke-width="2.46432" stroke-miterlimit="10" stroke-linecap="round"/>
<defs>
<filter id="filter0_d_936_1377" x="180.38" y="72.5381" width="207.789" height="260.802" filterUnits="userSpaceOnUse" color-interpolation-filters="sRGB">
<feFlood flood-opacity="0" result="BackgroundImageFix"/>
<feColorMatrix in="SourceAlpha" type="matrix" values="0 0 0 0 0 0 0 0 0 0 0 0 0 0 0 0 0 0 127 0" result="hardAlpha"/>
<feOffset dx="7.80368"/>
<feColorMatrix type="matrix" values="0 0 0 0 0 0 0 0 0 0 0 0 0 0 0 0 0 0 1 0"/>
<feBlend mode="normal" in2="BackgroundImageFix" result="effect1_dropShadow_936_1377"/>
<feBlend mode="normal" in="SourceGraphic" in2="effect1_dropShadow_936_1377" result="shape"/>
</filter>
</defs>
</svg>
