<svg width="895" height="880" viewBox="0 0 895 880" fill="none" xmlns="http://www.w3.org/2000/svg">
<g id="Course">
<path id="Vector" d="M557.39 657.37L569.85 638.4L602.56 630.51H612.94L621.39 622.21L645.86 622.42L664.01 628.71L680.3 648.34L694.57 676.78L705.62 707.93L715.08 752.43V777.13L705.15 830.43L688.09 853.79L656.34 871.21L610.75 867.89L590.51 854.72L577.16 836.44L567.87 796.49L570.7 780.11L565.45 767.19L554.8 752.43L549.59 735.63V719.98L557.39 657.37Z" fill="white"/>
<g id="body" filter="url(#filter0_d_904_2361)">
<path d="M540.1 77.8001C553.06 56.7501 580.05 43.7901 616.76 60.5201C653.47 77.2601 628.86 105.56 628.86 105.56L619.87 115.59C641.93 87.5201 666.66 82.1701 696.74 100.89C726.82 119.6 709.44 156.94 709.44 156.94L706.14 158.76C706.14 158.76 724.69 143.19 752.21 170.41C791.82 209.58 726.03 267.5 699.59 288.71C693.35 293.72 689.02 300.7 687.29 308.51L686.89 310.3C686.72 311.05 686.62 311.81 686.52 312.57C684.03 331.27 614.29 466.03 614.29 466.03C614.29 466.03 520.5 632.12 410.1 641.89C328.58 649.1 311.52 611.57 308.17 591.44C307.17 585.46 307.79 579.32 309.92 573.64C316.82 555.17 333.92 492.87 295.8 399.6C257.41 305.66 290.13 223.33 301.89 198.87C304.34 193.77 305.54 188.17 305.36 182.51C304.88 167.34 304.22 135.06 305.79 102.1C307.95 56.7501 334.36 7.86011 380.29 7.81011C437.4 7.74011 428.91 77.9301 428.91 77.9301C432.57 68.8001 435.35 63.7701 435.35 63.7701C435.35 63.7701 467.74 7.08011 513.63 21.6601C559.52 36.2401 544.16 72.0301 544.16 72.0301" fill="#FFAFA3"/>
</g>
<g id="Group">
<path id="Vector_2" d="M583.039 186.48C583.039 186.48 597.079 142.37 619.129 114.29C641.189 86.2199 665.919 80.8699 695.999 99.5899C726.079 118.31 708.699 155.64 708.699 155.64L705.399 157.46" stroke="black" stroke-width="13" stroke-miterlimit="10" stroke-linecap="round"/>
<path id="Vector_3" d="M503.73 161.8C509.13 126.71 526.4 97.5602 539.36 76.5002C552.32 55.4502 579.31 42.4902 616.02 59.2202C652.73 75.9602 628.12 104.26 628.12 104.26" stroke="black" stroke-width="13" stroke-miterlimit="10" stroke-linecap="round"/>
<path id="Vector_4" d="M543.44 70.7199C543.44 70.7199 558.79 34.9199 512.91 20.3499C467.02 5.7699 434.63 62.4599 434.63 62.4599C434.63 62.4599 415.19 97.5499 411.42 151" stroke="black" stroke-width="13" stroke-miterlimit="10" stroke-linecap="round"/>
<path id="Vector_5" d="M428.18 76.6201C428.18 76.6201 436.67 6.43005 379.56 6.50005C333.63 6.55005 307.22 55.4401 305.06 100.79C303.49 133.75 304.15 166.03 304.63 181.2C304.81 186.86 303.61 192.46 301.16 197.56C289.4 222.02 256.68 304.35 295.07 398.29C333.19 491.56 316.1 553.86 309.19 572.33C307.07 578.01 306.45 584.15 307.44 590.13C310.79 610.26 327.85 647.8 409.37 640.58C519.77 630.81 613.56 464.72 613.56 464.72C613.56 464.72 683.3 329.96 685.79 311.26C685.89 310.5 685.99 309.74 686.16 308.99L686.56 307.2C688.29 299.39 692.62 292.4 698.86 287.4C725.3 266.19 794.76 204.17 751.48 169.1C698.68 126.32 656.57 197.17 646.54 219.9" stroke="black" stroke-width="13" stroke-miterlimit="10" stroke-linecap="round"/>
<path id="Vector_6" d="M371.99 159.02C371.99 159.02 402.57 146.18 433.46 159.02" stroke="black" stroke-width="13" stroke-miterlimit="10" stroke-linecap="round"/>
<path id="Vector_7" d="M471.68 161.8C471.68 161.8 506.54 160.25 527.34 174.32" stroke="black" stroke-width="13" stroke-miterlimit="10" stroke-linecap="round"/>
<path id="Vector_8" d="M560.359 184.49C560.359 184.49 584.819 187.62 598.279 201.07" stroke="black" stroke-width="13" stroke-miterlimit="10" stroke-linecap="round"/>
<path id="Vector_9" d="M629.17 217.43C629.17 217.43 645.99 218.04 658.22 233.03" stroke="black" stroke-width="13" stroke-miterlimit="10" stroke-linecap="round"/>
</g>
<path id="Vector_10" d="M376.42 209.29C376.42 209.29 389.75 193.06 414.8 201.07C439.85 209.09 441.64 231.01 441.64 231.01" stroke="black" stroke-width="13" stroke-miterlimit="10" stroke-linecap="round"/>
<path id="Vector_11" d="M549.79 255.23C549.79 255.23 547.2 234.48 521.95 228.18C496.7 221.88 483.6 239.54 483.6 239.54" stroke="black" stroke-width="13" stroke-miterlimit="10" stroke-linecap="round"/>
<path id="Vector_12" d="M524.4 288.47C515.78 271.37 512.639 268.76 473.899 270.14C447.669 271.08 429.999 263.91 421.329 259.18C418.349 257.56 415.819 255.28 413.519 252.79C401.919 240.21 355.699 249.32 372.909 290.55C392.629 337.79 446.779 338.4 474.879 336.22C505.569 333.85 533.32 306.17 524.4 288.47ZM401.389 307.54C401.389 307.54 451.319 275.34 495.559 317.79C495.559 317.79 444.819 340.23 401.389 307.54Z" fill="black"/>
<path id="Vector_13" d="M723.65 508.09C723.65 508.09 711.52 465.98 759.49 452.88C807.46 439.78 819.9 453.62 827.52 470.63C827.52 470.63 839.22 485.93 854.03 490.24C868.85 494.55 884.8 530.6 884.8 530.6C884.8 530.6 897.84 559.29 866.14 584.25L848.99 597.69C848.99 597.69 838.92 614.05 814.61 610.58C814.61 610.58 788.969 625.72 767.219 617.46C767.219 617.46 749.67 606.18 750.88 595.96C750.88 595.96 698.529 613.12 723.659 508.09H723.65Z" fill="white"/>
<path id="Vector_14" d="M85.0005 305.28C85.0005 305.28 89.5905 357.24 151.25 335.19C212.91 313.15 190.21 281.48 190.21 281.48L202.08 246.05L219.61 215.66L234.22 192.26L224.39 173.31L196.19 169.76L173.4 186.63L167.19 193.99L159.61 169.84L157.75 129.1L148.61 111.4L130.62 104.32L119.12 109.33L108.27 116.46L100.54 131.45L83.7305 114.75L62.1705 116.12L59.5505 126.44L51.1605 133.45L46.8705 161.11L24.1605 154.76L17.2105 163.69L6.98047 180.93L9.41047 209.03L30.6505 227.32L34.7805 240.89L42.1505 249.74C42.1505 249.74 64.4805 301.25 85.0205 305.29L85.0005 305.28Z" fill="white"/>
<path id="Vector_15" d="M284.29 365.58C284.29 365.58 214.58 388.94 179.98 325.3C179.98 325.3 148.24 346.54 120.77 344.05C120.77 344.05 163.28 450.51 301.1 413.33L284.28 365.59L284.29 365.58Z" fill="black"/>
<path id="Vector_16" d="M652.84 400.77C652.84 400.77 744.46 396.21 783.07 443.24C783.07 443.24 746.56 452.72 726.56 475.89C726.56 475.89 699.18 446.4 628.27 454.83L652.84 400.77Z" fill="black"/>
<path id="Vector_17" d="M85 310.57C85 310.57 94.52 352.96 146.18 336.87C197.84 320.78 195.58 293.59 188.78 277.73" stroke="black" stroke-width="13" stroke-miterlimit="10" stroke-linecap="round"/>
<path id="Vector_18" d="M143.171 300.03C143.171 300.03 185.971 292.15 194.981 266.62C194.981 266.62 201.701 254.48 202.501 242.33C203.301 230.19 226.791 208.46 226.791 208.46C226.791 208.46 245.011 188.65 224.391 173.31C203.781 157.97 172.461 176.35 163.671 205.27C163.671 205.27 108.231 221.73 112.861 258.96" stroke="black" stroke-width="13" stroke-miterlimit="10" stroke-linecap="round"/>
<path id="Vector_19" d="M169.51 192.26C169.51 192.26 158.86 185.26 159.58 165.52C160.3 145.78 165.63 102.54 132.92 102.83C100.21 103.12 104.53 138.43 104.53 138.43C104.53 138.43 106.4 173.02 115.63 186.42" stroke="black" stroke-width="13" stroke-miterlimit="10" stroke-linecap="round"/>
<path id="Vector_20" d="M104.34 133.67C104.34 133.67 95.4402 109.89 70.0802 115.66C44.7102 121.42 48.6102 155.87 48.6102 155.87C48.6102 155.87 54.8102 185.27 76.1402 207.47" stroke="black" stroke-width="13" stroke-miterlimit="10" stroke-linecap="round"/>
<path id="Vector_21" d="M52.1998 167.76C52.1998 167.76 33.3098 149.43 18.5798 162.41C3.84981 175.39 6.71981 188.12 6.71981 188.12C6.71981 188.12 5.46981 204.6 42.0398 244.41C42.0398 244.41 64.1298 322.67 117.81 308.32" stroke="black" stroke-width="13" stroke-miterlimit="10" stroke-linecap="round"/>
<path id="Vector_22" d="M71.3496 223.67C71.3496 223.67 87.8496 191.62 132.11 191.24" stroke="black" stroke-width="13" stroke-miterlimit="10" stroke-linecap="round"/>
<path id="Vector_23" d="M726.849 510.47C726.849 510.47 710.119 473.97 753.159 455.42C796.189 436.87 820.519 451.47 827.519 470.63" stroke="black" stroke-width="13" stroke-miterlimit="10" stroke-linecap="round"/>
<path id="Vector_24" d="M764.599 486.44C764.599 486.44 707.089 511.99 716.209 564.6C716.209 564.6 718.709 591.92 737.709 596.82C746.399 599.06 755.509 595.47 760.949 588.33C766.019 581.67 768.639 571.65 753.619 560.95" stroke="black" stroke-width="13" stroke-miterlimit="10" stroke-linecap="round"/>
<path id="Vector_25" d="M759.489 565.98C759.489 565.98 757.149 554.56 759.489 548.78" stroke="black" stroke-width="13" stroke-miterlimit="10" stroke-linecap="round"/>
<path id="Vector_26" d="M752.91 595.05C752.91 595.05 755.75 620.13 778.93 620.13C802.11 620.13 816.98 608.03 824.29 575.27" stroke="black" stroke-width="13" stroke-miterlimit="10" stroke-linecap="round"/>
<path id="Vector_27" d="M808.34 609.21C808.34 609.21 860.58 626.45 860.83 557.39" stroke="black" stroke-width="13" stroke-miterlimit="10" stroke-linecap="round"/>
<path id="Vector_28" d="M855.889 587.81C855.889 587.81 901.309 575.07 883.959 528.23C879.659 516.63 872.539 506.26 863.399 497.92C850.799 486.41 829.169 471.74 803.869 475.9" stroke="black" stroke-width="13" stroke-miterlimit="10" stroke-linecap="round"/>
<path id="Vector_29" d="M423.24 641.17C423.24 641.17 480.88 765.83 587.78 719.54C587.78 719.54 631.85 705.35 610.47 663.55C610.47 663.55 601.31 640.52 575.13 649.24C548.95 657.97 522.77 656.87 481.76 620.77L423.25 641.17H423.24Z" fill="black"/>
<path id="Vector_30" d="M557.95 653.28C557.95 653.28 571.17 622.1 608.7 631.68C608.7 631.68 637.44 613.71 661.8 627.29C686.15 640.86 723 732.29 715.76 793.37C708.51 854.45 663.8 882.8 618.29 870.42C572.78 858.04 563.99 806.54 569.18 785.38C569.18 785.38 560 773.4 562.39 757.43C562.39 757.43 548.6 748.7 549.31 729.51" stroke="black" stroke-width="13" stroke-miterlimit="10" stroke-linecap="round"/>
<path id="Vector_31" d="M557.391 728.56C557.391 728.56 583.141 746.91 614.681 717.86C616.551 716.14 618.911 715 621.441 714.75C625.201 714.38 629.911 715.78 631.401 724.37C634.001 739.4 618.781 758.43 567.881 756.43" stroke="black" stroke-width="6" stroke-miterlimit="10" stroke-linecap="round"/>
<path id="Vector_32" d="M565.449 762.11C565.449 762.11 589.959 782.08 623.309 755.11C625.279 753.51 627.719 752.52 630.249 752.44C634.029 752.31 638.629 754.01 639.569 762.68C641.199 777.84 624.779 795.86 574.119 790.59" stroke="black" stroke-width="6" stroke-miterlimit="10" stroke-linecap="round"/>
<path id="Vector_33" d="M610.75 630.51C610.75 630.51 660.69 653.45 631.66 704.48" stroke="black" stroke-width="6" stroke-miterlimit="10" stroke-linecap="round"/>
<path id="Vector_34" d="M628.241 626.35C628.241 626.35 677.541 648.49 689.261 747.74C700.981 846.99 639.961 855.11 606.891 860.52" stroke="black" stroke-width="6" stroke-miterlimit="10" stroke-linecap="round"/>
<path id="Vector_35" d="M52.4492 686.11C52.4492 686.11 65.4092 606.78 164.849 642.95C164.849 642.95 189.649 633.23 202.179 648.69C202.179 648.69 234.859 619.9 267.099 661.69C299.339 703.48 293.269 712.49 293.269 712.49L297.809 732.6H314.119C314.119 732.6 328.489 773.09 299.849 809.69L277.229 845.36C277.229 845.36 59.5092 764.39 52.4592 686.1L52.4492 686.11Z" fill="white"/>
<path id="Vector_36" d="M307 588.96C307 588.96 274.04 593.92 247.49 640.26C247.49 640.26 283.88 660.96 276.94 691.11C276.94 691.11 275.44 731.34 302.43 739.44L314.85 731.61C314.85 731.61 324.68 667.87 350.88 640.57C350.88 640.57 316.55 623.6 306.99 588.96H307Z" fill="black"/>
<path id="Vector_37" d="M268.39 695.16C268.39 695.16 286.29 682.74 260.72 654.98C235.15 627.22 204.47 648.04 204.47 648.04C185.11 639.27 169.41 645.97 169.41 645.97C132.72 629.23 106.21 631.33 87.5304 640.13C57.6504 654.2 45.1604 691.03 61.4204 719.78C61.5004 719.92 62.5704 720.05 62.6504 720.19" stroke="black" stroke-width="13" stroke-miterlimit="10"/>
<path id="Vector_38" d="M274.24 684.93C274.24 684.93 284.83 743 307.84 747.02" stroke="black" stroke-width="13" stroke-miterlimit="10"/>
<path id="Vector_39" d="M301.361 744.33L305.681 733.97L309.141 735.21L314.851 731.61C314.851 731.61 333.411 763.45 304.191 807.65C304.191 807.65 299.111 827.28 279.391 843.71" stroke="black" stroke-width="13" stroke-miterlimit="10"/>
<path id="Vector_40" d="M49.9094 707.14C46.6194 689.64 58.0694 678.54 75.4094 682.62C75.5794 682.66 75.7494 682.7 75.9094 682.74C104.399 689.68 153.709 719.63 182.919 757.61C209.149 791.71 270.419 828.76 282.669 835.97C284.859 837.26 286.519 839.37 287.019 841.87C287.769 845.57 285.999 850.16 272.769 850.38C251.269 850.73 63.6094 780.07 49.9094 707.14Z" fill="black"/>
<path id="Vector_41" d="M67.6699 652.45C67.6699 652.45 113.45 651.44 161.24 690.93C209.03 730.42 254.39 800.13 302.52 812.44" stroke="black" stroke-width="6" stroke-miterlimit="10" stroke-linecap="round"/>
<path id="Vector_42" d="M171.551 649.94C171.551 649.94 194.441 667.7 201.991 676.81C209.541 685.91 215.321 708.55 235.191 693.96C255.061 679.37 201.991 649.94 201.991 649.94" stroke="black" stroke-width="6" stroke-miterlimit="10" stroke-linecap="round"/>
<path id="Vector_43" d="M235.959 676.81C235.959 676.81 247.079 704.57 268.639 691.7" stroke="black" stroke-width="6" stroke-miterlimit="10" stroke-linecap="round"/>
</g>
<defs>
<filter id="filter0_d_904_2361" x="277.676" y="7.81006" width="505.914" height="634.987" filterUnits="userSpaceOnUse" color-interpolation-filters="sRGB">
<feFlood flood-opacity="0" result="BackgroundImageFix"/>
<feColorMatrix in="SourceAlpha" type="matrix" values="0 0 0 0 0 0 0 0 0 0 0 0 0 0 0 0 0 0 127 0" result="hardAlpha"/>
<feOffset dx="19"/>
<feColorMatrix type="matrix" values="0 0 0 0 0 0 0 0 0 0 0 0 0 0 0 0 0 0 1 0"/>
<feBlend mode="normal" in2="BackgroundImageFix" result="effect1_dropShadow_904_2361"/>
<feBlend mode="normal" in="SourceGraphic" in2="effect1_dropShadow_904_2361" result="shape"/>
</filter>
</defs>
</svg>
