<svg width="1014" height="922" viewBox="0 0 1014 922" fill="none" xmlns="http://www.w3.org/2000/svg">
<g id="Normal">
<path id="Vector" d="M85.9161 280.3L79.8861 255.44L89.7161 241.64L106.166 236.5L116.746 242.04L128.516 258.4L138.046 274.14L159.326 293.92L169.826 299.17H181.026L190.216 308.57L195.086 327.87L191.616 363.55L188.676 376.89L168.356 378.99L157.426 382.12L135.136 392.23L116.726 399.06H89.7161L67.0761 408.52H42.8861L27.0261 384.14L34.9661 369.3L16.7561 363.78L8.49609 348.33L10.6861 327.87L24.8461 318.03L11.1461 304.22L13.6561 286.31L30.1161 275.3L46.8361 279.87L71.5961 285.89L89.7161 285.71L85.9161 280.3Z" fill="white"/>
<path id="Vector_2" d="M930.816 281.92L937.056 257.06L926.886 243.26L909.856 238.12L898.906 243.66L886.726 260.02L876.856 275.76L854.836 295.53L843.966 300.79H832.386L822.876 310.18L817.826 329.49L821.426 365.17L824.466 378.5L845.496 380.61L856.796 383.74L879.876 393.85L898.926 400.68H926.886L950.306 410.14H975.346L991.756 385.76L983.536 370.91L1002.39 365.39L1010.94 349.94L1008.68 329.49L994.016 319.64L1008.2 305.84L1005.6 287.92L988.556 276.92L971.256 281.49L945.636 287.51L926.886 287.33L930.816 281.92Z" fill="white"/>
<path id="Vector_3" d="M350.047 769.75C350.047 769.75 350.867 743.29 387.867 746.42C424.867 749.55 420.137 757.96 420.137 757.96L426.447 772.05L446.177 763.37L448.707 754.98C448.707 754.98 476.037 762.55 469.397 789.2L470.437 822.95L479.197 842.03V860.8L457.627 883.72L390.687 908.3L335.067 912.92L296.787 911.74L256.717 887.25V858.08L261.797 845.81L277.547 819.24L302.957 804.02L310.907 795L331.367 788.63L339.727 775.66L350.057 769.77L350.047 769.75Z" fill="white"/>
<path id="Vector_4" d="M629.816 769.12C629.816 769.12 628.996 742.66 591.866 745.79C554.736 748.92 559.486 757.33 559.486 757.33L553.156 771.42L533.366 762.74L530.826 754.35C530.826 754.35 503.406 761.92 510.066 788.57L509.026 822.32L500.236 841.4V860.17L521.876 883.09L589.046 907.67L644.846 912.29L683.256 911.11L723.466 886.62V857.45L718.366 845.18L702.566 818.61L677.066 803.39L669.096 794.37L648.566 788L640.176 775.03L629.816 769.14V769.12Z" fill="white"/>
<g id="body" filter="url(#filter0_d_904_2317)">
<path d="M521.947 57.4903C530.347 34.2403 554.137 16.0603 593.487 24.9603C632.837 33.8703 614.507 66.5903 614.507 66.5903L607.747 78.2403C623.627 46.2603 646.747 35.9903 680.007 48.1903C713.267 60.3903 703.857 100.48 703.857 100.48L700.997 102.93C700.997 102.93 715.987 83.9103 748.477 104.95C795.237 135.23 742.627 205.34 721.057 231.49C715.967 237.66 713.147 245.39 713.047 253.38L713.027 255.22C713.027 255.99 713.067 256.75 713.127 257.52C714.497 276.33 673.667 422.47 673.667 422.47C673.667 422.47 615.667 604.18 509.567 636.23C431.217 659.9 406.877 626.62 399.497 607.6C397.307 601.95 396.657 595.81 397.587 589.82C400.587 570.33 404.637 505.86 348.317 422.3C291.597 338.15 306.867 250.88 313.397 224.53C314.757 219.04 314.787 213.31 313.467 207.81C309.907 193.05 302.687 161.59 297.517 129C290.397 84.1603 306.297 30.9203 351.257 21.5103C407.157 9.81026 413.147 80.2603 413.147 80.2603C414.867 70.5703 416.567 65.0903 416.567 65.0903C416.567 65.0903 436.737 3.00026 484.627 7.92026C532.527 12.8503 524.777 51.0203 524.777 51.0203" fill="#FFAFA3"/>
</g>
<g id="Group">
<path id="Vector_5" d="M586.107 155.14C586.107 155.14 590.867 109.09 606.747 77.1202C622.627 45.1402 645.747 34.8702 679.007 47.0702C712.267 59.2702 702.857 99.3602 702.857 99.3602L699.997 101.81" stroke="black" stroke-width="13" stroke-miterlimit="10" stroke-linecap="round"/>
<path id="Vector_6" d="M503.437 147.13C501.577 111.67 512.557 79.6101 520.947 56.3601C529.347 33.1101 553.137 14.9301 592.487 23.8301C631.837 32.7301 613.507 65.4601 613.507 65.4601" stroke="black" stroke-width="13" stroke-miterlimit="10" stroke-linecap="round"/>
<path id="Vector_7" d="M523.767 49.8802C523.767 49.8802 531.507 11.7102 483.617 6.7802C435.717 1.8502 415.557 63.9502 415.557 63.9502C415.557 63.9502 403.677 102.26 410.857 155.36" stroke="black" stroke-width="13" stroke-miterlimit="10" stroke-linecap="round"/>
<path id="Vector_8" d="M412.127 79.1203C412.127 79.1203 406.147 8.67027 350.237 20.3703C305.277 29.7803 289.377 83.0203 296.497 127.86C301.677 160.45 308.887 191.91 312.447 206.67C313.777 212.17 313.737 217.9 312.377 223.39C305.847 249.74 290.577 337 347.297 421.16C403.617 504.72 399.567 569.19 396.567 588.68C395.647 594.67 396.287 600.81 398.477 606.46C405.857 625.49 430.207 658.76 508.547 635.09C614.647 603.04 672.647 421.33 672.647 421.33C672.647 421.33 713.477 275.19 712.107 256.38C712.047 255.62 711.997 254.85 712.007 254.08L712.027 252.24C712.127 244.24 714.947 236.52 720.037 230.35C741.607 204.2 796.977 129.33 747.457 103.81C687.047 72.6803 660.247 150.62 655.067 174.91" stroke="black" stroke-width="13" stroke-miterlimit="10" stroke-linecap="round"/>
<path id="Vector_9" d="M373.896 171.24C373.896 171.24 401.216 152.44 434.076 158.72" stroke="black" stroke-width="13" stroke-miterlimit="10" stroke-linecap="round"/>
<path id="Vector_10" d="M472.066 153.65C472.066 153.65 505.876 145.03 529.106 154.57" stroke="black" stroke-width="13" stroke-miterlimit="10" stroke-linecap="round"/>
<path id="Vector_11" d="M563.508 157.81C563.508 157.81 588.098 155.89 604.008 166.32" stroke="black" stroke-width="13" stroke-miterlimit="10" stroke-linecap="round"/>
<path id="Vector_12" d="M637.578 176.05C637.578 176.05 654.168 173.22 669.198 185.4" stroke="black" stroke-width="13" stroke-miterlimit="10" stroke-linecap="round"/>
</g>
<path id="Vector_13" d="M388.467 219.55C388.467 219.55 398.217 200.94 424.377 203.69C450.537 206.44 456.747 227.53 456.747 227.53" stroke="black" stroke-width="13" stroke-miterlimit="10" stroke-linecap="round"/>
<path id="Vector_14" d="M505.916 296.28C505.916 296.28 498.006 315.74 471.706 315.53C445.406 315.31 437.186 294.92 437.186 294.92" stroke="black" stroke-width="13" stroke-miterlimit="10" stroke-linecap="round"/>
<path id="Vector_15" d="M567.566 229.22C567.566 229.22 560.806 209.44 534.806 208.41C508.806 207.38 499.576 227.34 499.576 227.34" stroke="black" stroke-width="13" stroke-miterlimit="10" stroke-linecap="round"/>
<path id="Vector_16" d="M170.916 337.06C170.916 337.06 179.486 298.97 142.356 275.65C142.356 275.65 131.206 266.72 126.426 253.19C121.646 239.66 108.286 232.24 98.5464 237.02C88.8164 241.8 73.9664 251.04 86.8364 277.93C86.8364 277.93 93.1064 289.64 102.176 294.43C102.176 294.43 97.5564 332.04 129.556 347.71" stroke="black" stroke-width="13" stroke-linecap="round" stroke-linejoin="round"/>
<path id="Vector_17" d="M93.8071 287.62C93.8071 287.62 86.1771 294.42 54.8371 281.56C54.8371 281.56 19.7071 264.9 12.6071 292.94C12.6071 292.94 0.397057 324.45 78.9171 327.25" stroke="black" stroke-width="13" stroke-linecap="round" stroke-linejoin="round"/>
<path id="Vector_18" d="M35.7062 320.8C35.7062 320.8 6.00624 317.52 6.50624 343.91C6.99624 370.3 45.4362 368.65 45.4362 368.65C45.4362 368.65 65.3962 367.17 80.5662 360.9" stroke="black" stroke-width="13" stroke-linecap="round" stroke-linejoin="round"/>
<path id="Vector_19" d="M36.1272 368.18C36.1272 368.18 21.8372 379.37 28.5972 393.39C35.3572 407.41 51.8572 418.96 97.3872 397.84C97.3872 397.84 162.217 408.23 170.297 357.59" stroke="black" stroke-width="13" stroke-linecap="round" stroke-linejoin="round"/>
<path id="Vector_20" d="M159.377 381.5C159.377 381.5 199.997 399.75 200.657 339.95C200.657 339.95 201.877 290.62 165.137 299.65" stroke="black" stroke-width="13" stroke-linecap="round" stroke-linejoin="round"/>
<path id="Vector_21" d="M81.8256 315.51C81.8256 315.51 67.7056 338.72 91.6556 368.67" stroke="black" stroke-width="13" stroke-linecap="round" stroke-linejoin="round"/>
<path id="Vector_22" d="M849.135 338.58C849.135 338.58 840.605 300.49 877.585 277.17C877.585 277.17 888.685 268.24 893.445 254.71C898.205 241.18 911.515 233.76 921.205 238.54C930.895 243.32 945.685 252.56 932.865 279.45C932.865 279.45 926.625 291.16 917.585 295.95C917.585 295.95 922.185 333.56 890.315 349.23" stroke="black" stroke-width="13" stroke-linecap="round" stroke-linejoin="round"/>
<path id="Vector_23" d="M925.926 289.14C925.926 289.14 933.526 295.94 964.736 283.08C964.736 283.08 999.726 266.42 1006.79 294.46C1006.79 294.46 1018.95 325.97 940.746 328.77" stroke="black" stroke-width="13" stroke-linecap="round" stroke-linejoin="round"/>
<path id="Vector_24" d="M983.366 369.7C983.366 369.7 997.596 380.89 990.856 394.91C984.116 408.93 967.696 420.48 922.356 399.36C922.356 399.36 857.796 409.75 849.746 359.11" stroke="black" stroke-width="13" stroke-linecap="round" stroke-linejoin="round"/>
<path id="Vector_25" d="M860.626 383.02C860.626 383.02 820.176 401.27 819.516 341.47C819.516 341.47 818.306 292.14 854.886 301.17" stroke="black" stroke-width="13" stroke-linecap="round" stroke-linejoin="round"/>
<path id="Vector_26" d="M937.866 317.03C937.866 317.03 951.926 340.24 928.076 370.19" stroke="black" stroke-width="13" stroke-linecap="round" stroke-linejoin="round"/>
<path id="Vector_27" d="M311.417 319.02H199.637C199.637 319.02 205.757 348 199.637 366.4H321.707L311.407 319.02H311.417Z" fill="black"/>
<path id="Vector_28" d="M703.906 319.81H824.996C824.996 319.81 818.366 348.79 824.996 367.19H692.756L703.916 319.81H703.906Z" fill="black"/>
<path id="Vector_29" d="M260.816 858.83C260.816 858.83 264.115 813.35 306.955 804.12C306.955 804.12 310.906 787.31 331.346 787.97C331.346 787.97 335.295 770.5 351.775 771.49C351.775 771.49 352.105 741.83 386.705 745.12C421.305 748.42 422.626 777.09 422.626 777.09C422.626 777.09 435.476 786.32 450.636 777.75V754.35C450.636 754.35 480.956 760.28 470.406 791.59C470.406 791.59 477.325 807.08 477.985 835.09C477.985 835.09 486.556 857.17 475.346 869.37C464.136 881.56 378.455 928.03 304.295 912.21C304.295 912.21 238.375 902.41 260.795 858.82L260.816 858.83Z" stroke="black" stroke-width="13" stroke-linecap="round" stroke-linejoin="round"/>
<path id="Vector_30" d="M723.986 858.83C723.986 858.83 720.666 813.35 677.566 804.12C677.566 804.12 673.586 787.31 653.026 787.97C653.026 787.97 649.046 770.5 632.466 771.49C632.466 771.49 632.136 741.83 597.316 745.12C562.506 748.42 561.176 777.09 561.176 777.09C561.176 777.09 548.246 786.32 532.996 777.75V754.35C532.996 754.35 502.496 760.28 513.106 791.59C513.106 791.59 506.146 807.08 505.476 835.09C505.476 835.09 496.856 857.17 508.126 869.37C519.396 881.56 605.606 928.03 680.206 912.21C680.206 912.21 746.526 902.41 723.976 858.82L723.986 858.83Z" stroke="black" stroke-width="13" stroke-linecap="round" stroke-linejoin="round"/>
<path id="Vector_31" d="M341.655 775.03C341.655 775.03 382.305 773 402.035 791.53C406.125 795.37 408.205 801.02 407.205 806.55C406.365 811.21 403.355 815.48 394.685 813.86C390.875 813.15 387.335 811.4 384.295 808.99C377.595 803.69 355.615 793.61 327.215 789.87C327.215 789.87 397.575 803.29 383.515 824C383.515 824 378.775 833.64 360.125 824C341.475 814.36 330.815 808.03 307.775 801.79" stroke="black" stroke-width="7" stroke-linecap="round" stroke-linejoin="round"/>
<path id="Vector_32" d="M405.686 796.4C405.686 796.4 416.876 796.65 418.456 774.05" stroke="black" stroke-width="7" stroke-linecap="round" stroke-linejoin="round"/>
<path id="Vector_33" d="M294.996 808.01C294.996 808.01 371.176 796.41 379.016 876.03" stroke="black" stroke-width="7" stroke-linecap="round" stroke-linejoin="round"/>
<path id="Vector_34" d="M259.717 861.1C259.717 861.1 300.157 902.06 379.017 880.83C457.877 859.6 477.977 834.05 477.977 834.05" stroke="black" stroke-width="7" stroke-linecap="round" stroke-linejoin="round"/>
<path id="Vector_35" d="M640.727 774.7C640.727 774.7 600.457 772.67 580.907 791.2C576.857 795.04 574.797 800.69 575.787 806.22C576.627 810.88 579.607 815.15 588.187 813.53C591.967 812.82 595.467 811.07 598.487 808.66C605.117 803.36 626.907 793.28 655.037 789.54C655.037 789.54 585.327 802.96 599.267 823.67C599.267 823.67 603.967 833.31 622.437 823.67C640.917 814.03 651.477 807.7 674.297 801.46" stroke="black" stroke-width="7" stroke-linecap="round" stroke-linejoin="round"/>
<path id="Vector_36" d="M577.296 796.07C577.296 796.07 566.216 796.32 564.646 773.72" stroke="black" stroke-width="7" stroke-linecap="round" stroke-linejoin="round"/>
<path id="Vector_37" d="M686.957 807.68C686.957 807.68 611.487 796.08 603.717 875.7" stroke="black" stroke-width="7" stroke-linecap="round" stroke-linejoin="round"/>
<path id="Vector_38" d="M721.906 860.78C721.906 860.78 681.846 901.74 603.716 880.51C525.586 859.28 505.676 833.73 505.676 833.73" stroke="black" stroke-width="7" stroke-linecap="round" stroke-linejoin="round"/>
<path id="Vector_39" d="M534.537 623.9V779.96C534.537 779.96 550.417 792.81 564.647 779.96C564.647 779.96 556.247 747.98 597.327 745.13L593.757 573.52C593.757 573.52 578.847 601.47 534.537 623.9Z" fill="black"/>
<path id="Vector_40" d="M386.717 745.13L394.727 600.94C394.727 600.94 402.867 632.96 451.257 643.29V776.11C451.257 776.11 441.537 790.67 418.987 779.11C418.987 779.11 427.107 753.13 386.717 745.13Z" fill="black"/>
</g>
<defs>
<filter id="filter0_d_904_2317" x="295.887" y="7.64258" width="490.381" height="636.777" filterUnits="userSpaceOnUse" color-interpolation-filters="sRGB">
<feFlood flood-opacity="0" result="BackgroundImageFix"/>
<feColorMatrix in="SourceAlpha" type="matrix" values="0 0 0 0 0 0 0 0 0 0 0 0 0 0 0 0 0 0 127 0" result="hardAlpha"/>
<feOffset dx="19"/>
<feColorMatrix type="matrix" values="0 0 0 0 0 0 0 0 0 0 0 0 0 0 0 0 0 0 1 0"/>
<feBlend mode="normal" in2="BackgroundImageFix" result="effect1_dropShadow_904_2317"/>
<feBlend mode="normal" in="SourceGraphic" in2="effect1_dropShadow_904_2317" result="shape"/>
</filter>
</defs>
</svg>
