<svg width="634" height="922" viewBox="0 0 634 922" fill="none" xmlns="http://www.w3.org/2000/svg">
<g id="Triste">
<path id="Vector" d="M47.3004 607.6L21.7604 609.03L9.97039 596.86L7.90039 579.75L15.2604 570.35L33.4804 561.74L50.6904 555.21L73.9904 537.86L81.0604 528.49L83.0804 517.48L93.9904 510.14L113.86 508.84L148.31 518.72L160.9 524.02L159.29 544.39L160.39 555.7L166.29 579.46L169.68 598.8L164.79 625.37L169.99 649.34L165.61 673.13L138.77 684.31L125.6 673.81L116.88 690.73L100.19 696.05L80.4704 690.2L73.3504 674.49L57.2904 685.46L40.1304 679.75L32.2804 661.57L39.8004 645.95L50.2104 622.69L53.3204 604.84L47.3004 607.6Z" fill="white"/>
<path id="Vector_2" d="M583.87 621.36L609.24 625.01L621.92 613.47L625.28 596.01L618.64 585.68L601.12 575.25L584.44 567.06L562.51 547.18L556.16 536.92L554.97 525.39L544.65 516.9L524.92 513.86L489.81 521.11L476.85 525.51L476.92 546.64L474.97 558.21L467.29 582.21L462.46 601.86L465.33 629.67L458.34 653.94L460.91 678.84L486.85 692.66L500.77 682.96L508.2 701.14L524.45 708.06L544.56 703.7L552.85 688.11L568.03 700.79L585.59 696.37L594.78 678.28L588.46 661.55L579.83 636.68L578.08 618.01L583.87 621.36Z" fill="white"/>
<path id="Vector_3" d="M169.199 769.75C169.199 769.75 170.019 743.29 207.019 746.42C244.019 749.55 239.289 757.96 239.289 757.96L245.599 772.05L265.329 763.37L267.859 754.98C267.859 754.98 295.189 762.55 288.549 789.2L289.589 822.95L298.349 842.03V860.8L276.779 883.72L209.839 908.3L154.219 912.92L115.939 911.74L75.8691 887.25V858.08L80.9491 845.81L96.6991 819.24L122.109 804.02L130.059 795L150.519 788.63L158.879 775.66L169.209 769.77L169.199 769.75Z" fill="white"/>
<path id="Vector_4" d="M448.969 769.12C448.969 769.12 448.149 742.66 411.019 745.79C373.889 748.92 378.639 757.33 378.639 757.33L372.309 771.42L352.519 762.74L349.979 754.35C349.979 754.35 322.559 761.92 329.219 788.57L328.179 822.32L319.389 841.4V860.17L341.029 883.09L408.199 907.67L463.999 912.29L502.409 911.11L542.619 886.62V857.45L537.519 845.18L521.719 818.61L496.219 803.39L488.249 794.37L467.719 788L459.329 775.03L448.969 769.14V769.12Z" fill="white"/>
<g id="body" filter="url(#filter0_d_904_2272)">
<path d="M341.099 57.4903C349.499 34.2403 373.289 16.0603 412.639 24.9603C451.989 33.8703 433.659 66.5903 433.659 66.5903L426.899 78.2403C442.779 46.2603 465.899 35.9903 499.159 48.1903C532.419 60.3903 523.009 100.48 523.009 100.48L520.149 102.93C520.149 102.93 535.139 83.9103 567.629 104.95C614.389 135.23 561.779 205.34 540.209 231.49C535.119 237.66 532.299 245.39 532.199 253.38L532.179 255.22C532.179 255.99 532.219 256.75 532.279 257.52C533.649 276.33 492.819 422.47 492.819 422.47C492.819 422.47 434.819 604.18 328.719 636.23C250.369 659.9 226.029 626.62 218.649 607.6C216.459 601.95 215.809 595.81 216.739 589.82C219.739 570.33 223.789 505.86 167.469 422.3C110.749 338.15 126.019 250.88 132.549 224.53C133.909 219.04 133.939 213.31 132.619 207.81C129.059 193.05 121.839 161.59 116.669 129C109.549 84.1603 125.449 30.9203 170.409 21.5103C226.309 9.81026 232.299 80.2603 232.299 80.2603C234.019 70.5703 235.719 65.0903 235.719 65.0903C235.719 65.0903 255.889 3.00026 303.779 7.92026C351.679 12.8503 343.929 51.0203 343.929 51.0203" fill="#FFAFA3"/>
</g>
<g id="Group">
<path id="Vector_5" d="M405.26 155.14C405.26 155.14 410.02 109.09 425.9 77.1202C441.78 45.1402 464.9 34.8702 498.16 47.0702C531.42 59.2702 522.01 99.3602 522.01 99.3602L519.15 101.81" stroke="black" stroke-width="13" stroke-miterlimit="10" stroke-linecap="round"/>
<path id="Vector_6" d="M322.589 147.13C320.729 111.67 331.709 79.6101 340.099 56.3601C348.489 33.1101 372.289 14.9301 411.639 23.8301C450.989 32.7401 432.659 65.4601 432.659 65.4601" stroke="black" stroke-width="13" stroke-miterlimit="10" stroke-linecap="round"/>
<path id="Vector_7" d="M342.919 49.8802C342.919 49.8802 350.659 11.7102 302.769 6.7802C254.869 1.8502 234.709 63.9502 234.709 63.9502C234.709 63.9502 222.829 102.26 230.009 155.36" stroke="black" stroke-width="13" stroke-miterlimit="10" stroke-linecap="round"/>
<path id="Vector_8" d="M231.279 79.1203C231.279 79.1203 225.299 8.67027 169.389 20.3703C124.429 29.7803 108.529 83.0203 115.649 127.86C120.829 160.45 128.039 191.91 131.599 206.67C132.929 212.17 132.889 217.9 131.529 223.39C124.999 249.74 109.729 337 166.449 421.16C222.769 504.72 218.719 569.19 215.719 588.68C214.799 594.67 215.439 600.81 217.629 606.46C225.009 625.49 249.359 658.76 327.699 635.09C433.799 603.04 491.799 421.33 491.799 421.33C491.799 421.33 532.629 275.19 531.259 256.38C531.199 255.62 531.149 254.85 531.159 254.08L531.179 252.24C531.279 244.24 534.099 236.52 539.189 230.35C560.759 204.2 616.129 129.33 566.609 103.81C506.199 72.6803 479.399 150.62 474.219 174.91" stroke="black" stroke-width="13" stroke-miterlimit="10" stroke-linecap="round"/>
<path id="Vector_9" d="M193.049 171.24C193.049 171.24 220.369 152.44 253.229 158.72" stroke="black" stroke-width="13" stroke-miterlimit="10" stroke-linecap="round"/>
<path id="Vector_10" d="M291.219 153.65C291.219 153.65 325.029 145.03 348.259 154.57" stroke="black" stroke-width="13" stroke-miterlimit="10" stroke-linecap="round"/>
<path id="Vector_11" d="M382.66 157.81C382.66 157.81 407.25 155.89 423.16 166.32" stroke="black" stroke-width="13" stroke-miterlimit="10" stroke-linecap="round"/>
<path id="Vector_12" d="M456.73 176.05C456.73 176.05 473.32 173.22 488.35 185.4" stroke="black" stroke-width="13" stroke-miterlimit="10" stroke-linecap="round"/>
</g>
<path id="Vector_13" d="M207.619 219.55C207.619 219.55 217.369 200.94 243.529 203.69C269.689 206.44 275.899 227.53 275.899 227.53" stroke="black" stroke-width="13" stroke-miterlimit="10" stroke-linecap="round"/>
<path id="Vector_14" d="M259.42 304.69C259.42 304.69 267.45 285.28 293.74 285.65C320.03 286.02 328.14 306.47 328.14 306.47" stroke="black" stroke-width="13" stroke-miterlimit="10" stroke-linecap="round"/>
<path id="Vector_15" d="M386.72 229.22C386.72 229.22 379.96 209.44 353.96 208.41C327.96 207.38 318.73 227.34 318.73 227.34" stroke="black" stroke-width="13" stroke-miterlimit="10" stroke-linecap="round"/>
<path id="Vector_16" d="M118.52 534.28C118.52 534.28 82.6196 518.96 52.9496 551.25C52.9496 551.25 42.1396 560.59 27.9796 562.85C13.8096 565.11 4.08961 576.9 7.02961 587.34C9.96961 597.78 16.3696 614.05 45.1396 606.27C45.1396 606.27 57.7896 602.23 64.1396 594.17C64.1396 594.17 100.29 605.52 121.5 576.89" stroke="black" stroke-width="13" stroke-linecap="round" stroke-linejoin="round"/>
<path id="Vector_17" d="M55.9294 601.16C55.9294 601.16 61.2394 609.9 42.9094 638.39C42.9094 638.39 20.1594 669.93 46.4594 681.98C46.4594 681.98 75.2294 699.69 92.2094 622.98" stroke="black" stroke-width="13" stroke-linecap="round" stroke-linejoin="round"/>
<path id="Vector_18" d="M78.0405 664.31C78.0405 664.31 69.4405 692.92 95.4805 697.22C121.53 701.51 126.86 663.41 126.86 663.41C126.86 663.41 129.01 643.51 125.6 627.45" stroke="black" stroke-width="13" stroke-linecap="round" stroke-linejoin="round"/>
<path id="Vector_19" d="M124.719 672.47C124.719 672.47 133.139 688.55 148.149 684.44C163.159 680.33 177.509 666.2 164.979 617.6C164.979 617.6 186.939 555.73 138.599 538.61" stroke="black" stroke-width="13" stroke-linecap="round" stroke-linejoin="round"/>
<path id="Vector_20" d="M160.129 553.68C160.129 553.68 185.429 517.04 126.739 505.56C126.739 505.56 78.4391 495.43 80.6791 533.19" stroke="black" stroke-width="13" stroke-linecap="round" stroke-linejoin="round"/>
<path id="Vector_21" d="M81.1992 618C81.1992 618 101.469 636.09 135.259 617.96" stroke="black" stroke-width="13" stroke-linecap="round" stroke-linejoin="round"/>
<path id="Vector_22" d="M519.11 545.94C519.11 545.94 556.12 533.53 583.12 567.92C583.12 567.92 593.15 578.04 607.09 581.39C621.03 584.74 629.79 597.21 626.03 607.34C622.27 617.47 614.6 633.13 586.54 623.15C586.54 623.15 574.25 618.15 568.56 609.65C568.56 609.65 531.62 618.09 512.76 588.01" stroke="black" stroke-width="13" stroke-linecap="round" stroke-linejoin="round"/>
<path id="Vector_23" d="M576.189 617.24C576.189 617.24 570.199 625.5 586.209 655.22C586.209 655.22 606.379 688.31 579.219 698.22C579.219 698.22 549.129 713.55 538.299 636.06" stroke="black" stroke-width="13" stroke-linecap="round" stroke-linejoin="round"/>
<path id="Vector_24" d="M549.139 678.21C549.139 678.21 555.449 707.29 529.139 709.52C502.839 711.75 500.539 673.5 500.539 673.5C500.539 673.5 499.969 653.58 504.649 637.9" stroke="black" stroke-width="13" stroke-linecap="round" stroke-linejoin="round"/>
<path id="Vector_25" d="M501.959 682.66C501.959 682.66 492.289 697.97 477.649 692.71C463.009 687.45 449.839 672.3 466.169 625.03C466.169 625.03 449.189 561.88 498.729 548.67" stroke="black" stroke-width="13" stroke-linecap="round" stroke-linejoin="round"/>
<path id="Vector_26" d="M476.089 561.95C476.089 561.95 453.779 523.59 513.189 516.78C513.189 516.78 562.139 510.5 556.909 547.82" stroke="black" stroke-width="13" stroke-linecap="round" stroke-linejoin="round"/>
<path id="Vector_27" d="M549.669 631.98C549.669 631.98 528.029 648.35 495.789 627.71" stroke="black" stroke-width="13" stroke-linecap="round" stroke-linejoin="round"/>
<path id="Vector_28" d="M79.9796 858.83C79.9796 858.83 83.2796 813.35 126.12 804.12C126.12 804.12 130.07 787.31 150.51 787.97C150.51 787.97 154.46 770.5 170.94 771.49C170.94 771.49 171.27 741.83 205.87 745.12C240.47 748.42 241.79 777.09 241.79 777.09C241.79 777.09 254.64 786.32 269.8 777.75V754.35C269.8 754.35 300.12 760.28 289.57 791.59C289.57 791.59 296.49 807.08 297.15 835.09C297.15 835.09 305.72 857.17 294.51 869.37C283.3 881.56 197.62 928.03 123.46 912.21C123.46 912.21 57.5396 902.41 79.9596 858.82L79.9796 858.83Z" stroke="black" stroke-width="13" stroke-linecap="round" stroke-linejoin="round"/>
<path id="Vector_29" d="M543.141 858.83C543.141 858.83 539.821 813.35 496.721 804.12C496.721 804.12 492.741 787.31 472.181 787.97C472.181 787.97 468.201 770.5 451.621 771.49C451.621 771.49 451.291 741.83 416.471 745.12C381.661 748.42 380.331 777.09 380.331 777.09C380.331 777.09 367.401 786.32 352.151 777.75V754.35C352.151 754.35 321.651 760.28 332.261 791.59C332.261 791.59 325.301 807.08 324.631 835.09C324.631 835.09 316.011 857.17 327.281 869.37C338.551 881.56 424.761 928.03 499.361 912.21C499.361 912.21 565.681 902.41 543.131 858.82L543.141 858.83Z" stroke="black" stroke-width="13" stroke-linecap="round" stroke-linejoin="round"/>
<path id="Vector_30" d="M160.819 775.03C160.819 775.03 201.469 773 221.199 791.53C225.289 795.37 227.369 801.02 226.369 806.55C225.529 811.21 222.519 815.48 213.849 813.86C210.039 813.15 206.499 811.4 203.459 808.99C196.759 803.69 174.779 793.61 146.379 789.87C146.379 789.87 216.739 803.29 202.679 824C202.679 824 197.939 833.64 179.289 824C160.639 814.36 149.979 808.03 126.939 801.79" stroke="black" stroke-width="7" stroke-linecap="round" stroke-linejoin="round"/>
<path id="Vector_31" d="M224.84 796.4C224.84 796.4 236.03 796.65 237.61 774.05" stroke="black" stroke-width="7" stroke-linecap="round" stroke-linejoin="round"/>
<path id="Vector_32" d="M114.15 808.01C114.15 808.01 190.33 796.41 198.17 876.03" stroke="black" stroke-width="7" stroke-linecap="round" stroke-linejoin="round"/>
<path id="Vector_33" d="M78.8691 861.1C78.8691 861.1 119.309 902.06 198.169 880.83C277.029 859.6 297.129 834.05 297.129 834.05" stroke="black" stroke-width="7" stroke-linecap="round" stroke-linejoin="round"/>
<path id="Vector_34" d="M459.879 774.7C459.879 774.7 419.609 772.67 400.059 791.2C396.009 795.04 393.949 800.69 394.939 806.22C395.779 810.88 398.759 815.15 407.339 813.53C411.119 812.82 414.619 811.07 417.639 808.66C424.269 803.36 446.059 793.28 474.189 789.54C474.189 789.54 404.479 802.96 418.419 823.67C418.419 823.67 423.119 833.31 441.589 823.67C460.069 814.03 470.629 807.7 493.449 801.46" stroke="black" stroke-width="7" stroke-linecap="round" stroke-linejoin="round"/>
<path id="Vector_35" d="M396.449 796.07C396.449 796.07 385.369 796.32 383.799 773.72" stroke="black" stroke-width="7" stroke-linecap="round" stroke-linejoin="round"/>
<path id="Vector_36" d="M506.109 807.68C506.109 807.68 430.639 796.08 422.869 875.7" stroke="black" stroke-width="7" stroke-linecap="round" stroke-linejoin="round"/>
<path id="Vector_37" d="M541.06 860.78C541.06 860.78 501 901.74 422.87 880.51C344.74 859.28 324.83 833.73 324.83 833.73" stroke="black" stroke-width="7" stroke-linecap="round" stroke-linejoin="round"/>
<path id="Vector_38" d="M353.689 623.9V779.96C353.689 779.96 369.569 792.81 383.799 779.96C383.799 779.96 375.399 747.98 416.479 745.13L412.909 573.52C412.909 573.52 397.999 601.47 353.689 623.9Z" fill="black"/>
<path id="Vector_39" d="M205.869 745.13L213.879 600.94C213.879 600.94 222.019 632.96 270.409 643.29V776.11C270.409 776.11 260.689 790.67 238.139 779.11C238.139 779.11 246.259 753.13 205.869 745.13Z" fill="black"/>
<path id="Vector_40" d="M140.949 372.18L102.109 500.38C102.109 500.38 143.649 501.41 159.529 516.39L179.349 441.7L140.959 372.18H140.949Z" fill="black"/>
<path id="Vector_41" d="M478.64 463.4L476.85 525.51L544.65 516.9L510.75 377.79L478.64 463.4Z" fill="black"/>
</g>
<defs>
<filter id="filter0_d_904_2272" x="115.039" y="7.64258" width="490.381" height="636.777" filterUnits="userSpaceOnUse" color-interpolation-filters="sRGB">
<feFlood flood-opacity="0" result="BackgroundImageFix"/>
<feColorMatrix in="SourceAlpha" type="matrix" values="0 0 0 0 0 0 0 0 0 0 0 0 0 0 0 0 0 0 127 0" result="hardAlpha"/>
<feOffset dx="19"/>
<feColorMatrix type="matrix" values="0 0 0 0 0 0 0 0 0 0 0 0 0 0 0 0 0 0 1 0"/>
<feBlend mode="normal" in2="BackgroundImageFix" result="effect1_dropShadow_904_2272"/>
<feBlend mode="normal" in="SourceGraphic" in2="effect1_dropShadow_904_2272" result="shape"/>
</filter>
</defs>
</svg>
