<svg width="868" height="933" viewBox="0 0 868 933" fill="none" xmlns="http://www.w3.org/2000/svg">
<g id="Fatigu&#195;&#169;/endormi">
<path id="Vector" d="M638.179 272.33L622.269 292.42L625.869 309.18L639.269 320.87L651.529 320.33L669.359 310.42L684.829 300.13L713.039 291.17L725.099 290.84L735.659 295.61L748.199 290.95L760.739 275.43L772.129 241.43L774.839 228.02L756.539 217.46L747.519 209.95L730.639 191.25L716.079 177.19L690.599 165.69L673.129 147.44L650.319 137.15L625.329 152.61L626.719 169.53L607.259 166.81L593.119 177.38L586.769 196.95L596.079 211.95L577.479 218.71L572.479 236.1L583.479 253.14L601.129 256.09L626.969 261.14L643.989 269.01L638.179 272.33Z" fill="white"/>
<path id="Vector_2" d="M735.927 254.27C735.927 254.27 728.047 292.5 684.747 298.55C684.747 298.55 670.957 302.13 661.047 312.5C651.147 322.87 635.957 324.17 629.097 315.82C622.227 307.47 612.547 292.97 635.287 273.73C635.287 273.73 645.797 265.62 655.997 264.98C655.997 264.98 667.267 228.81 702.767 227.63" stroke="black" stroke-width="13" stroke-linecap="round" stroke-linejoin="round"/>
<path id="Vector_3" d="M645.598 267.76C645.598 267.76 641.468 258.43 607.728 257.33C607.728 257.33 568.978 258.13 574.078 229.66C574.078 229.66 575.948 195.94 648.388 225.54" stroke="black" stroke-width="13" stroke-linecap="round" stroke-linejoin="round"/>
<path id="Vector_4" d="M606.498 213.73C606.498 213.73 578.188 204.56 589.488 180.7C600.788 156.85 634.998 174.09 634.998 174.09C634.998 174.09 652.508 183.62 663.708 195.55" stroke="black" stroke-width="13" stroke-linecap="round" stroke-linejoin="round"/>
<path id="Vector_5" d="M626.367 170.7C626.367 170.7 617.997 154.65 629.907 144.64C641.817 134.63 661.537 130.86 694.177 168.75C694.177 168.75 757.297 185.83 743.817 235.3" stroke="black" stroke-width="13" stroke-linecap="round" stroke-linejoin="round"/>
<path id="Vector_6" d="M743.729 209.04C743.729 209.04 788.109 209.04 764.119 263.82C764.119 263.82 744.939 309.29 715.309 286.01" stroke="black" stroke-width="13" stroke-linecap="round" stroke-linejoin="round"/>
<path id="Vector_7" d="M646.188 237.43C646.188 237.43 642.918 210.49 676.968 193" stroke="black" stroke-width="13" stroke-linecap="round" stroke-linejoin="round"/>
<path id="Vector_8" d="M218.499 243.56L240.079 257.29L242.569 274.05L234.279 289.16L222.809 292.51L202.989 288.88L185.199 284.15L156.159 284.66L144.949 288.15L136.879 295.91L123.749 295.51L106.839 284.98L84.6085 256.87L77.4785 245.22L90.6585 229.61L96.3585 219.78L105.419 197.04L113.949 179.35L133.409 160.62L143.169 138.11L160.589 121.34L188.919 127.9L193.499 144.11L210.449 135.46L227.109 140.86L239.719 157.12L236.339 174.03L255.789 174.48L266.398 189.13L262.169 208.48L246.959 216.77L224.939 229.61L212.009 242.29L218.499 243.56Z" fill="white"/>
<path id="Vector_9" d="M117.889 261.6C117.889 261.6 138.119 294.98 181.049 286.05C181.049 286.05 195.279 284.76 208.099 291.19C220.919 297.62 235.699 293.7 239.399 283.51C243.099 273.31 247.389 256.36 219.469 245.91C219.469 245.91 206.829 241.82 196.979 244.66C196.979 244.66 174.229 214.36 140.309 225.26" stroke="black" stroke-width="13" stroke-linecap="round" stroke-linejoin="round"/>
<path id="Vector_10" d="M207.738 243.76C207.738 243.76 208.518 233.57 240.028 221.1C240.028 221.1 276.898 208.74 262.568 183.62C262.568 183.62 249.518 152.45 190.998 204.88" stroke="black" stroke-width="13" stroke-linecap="round" stroke-linejoin="round"/>
<path id="Vector_11" d="M226.599 179.57C226.599 179.57 250.269 161.34 231.619 142.67C212.959 124 186.409 151.83 186.409 151.83C186.409 151.83 173.059 166.74 166.469 181.78" stroke="black" stroke-width="13" stroke-linecap="round" stroke-linejoin="round"/>
<path id="Vector_12" d="M193.427 145.72C193.427 145.72 195.967 127.75 181.367 122.34C166.767 116.93 146.877 120.04 128.717 166.83C128.717 166.83 74.7972 204.29 104.087 246.39" stroke="black" stroke-width="13" stroke-linecap="round" stroke-linejoin="round"/>
<path id="Vector_13" d="M95.398 221.58C95.398 221.58 53.478 236.6 94.468 280.14C94.468 280.14 127.798 316.53 147.998 284.55" stroke="black" stroke-width="13" stroke-linecap="round" stroke-linejoin="round"/>
<path id="Vector_14" d="M194.028 217.35C194.028 217.35 188.108 190.84 150.088 185.86" stroke="black" stroke-width="13" stroke-linecap="round" stroke-linejoin="round"/>
<g id="body" filter="url(#filter0_d_904_2408)">
<path d="M428.128 57.4903C436.528 34.2403 460.318 16.0603 499.668 24.9603C539.018 33.8703 520.688 66.5903 520.688 66.5903L513.928 78.2403C529.808 46.2603 552.928 35.9903 586.188 48.1903C619.448 60.3903 610.038 100.48 610.038 100.48L607.178 102.93C607.178 102.93 622.168 83.9103 654.658 104.95C701.418 135.23 648.808 205.34 627.238 231.49C622.148 237.66 619.328 245.39 619.228 253.38L619.208 255.22C619.208 255.99 619.248 256.75 619.308 257.52C620.678 276.33 579.848 422.47 579.848 422.47C579.848 422.47 521.848 604.18 415.748 636.23C337.398 659.9 313.058 626.62 305.678 607.6C303.488 601.95 302.838 595.81 303.768 589.82C306.768 570.33 310.818 505.86 254.498 422.3C197.778 338.15 213.048 250.88 219.578 224.53C220.938 219.04 220.968 213.31 219.648 207.81C216.088 193.05 208.868 161.59 203.698 129C196.578 84.1603 212.478 30.9203 257.438 21.5103C313.338 9.81026 319.328 80.2603 319.328 80.2603C321.048 70.5703 322.748 65.0903 322.748 65.0903C322.748 65.0903 342.918 3.00026 390.808 7.92026C438.708 12.8503 430.958 51.0203 430.958 51.0203" fill="#FFAFA3"/>
</g>
<g id="Group">
<path id="Vector_15" d="M492.289 155.14C492.289 155.14 497.049 109.09 512.929 77.1202C528.809 45.1402 551.929 34.8702 585.189 47.0702C618.449 59.2702 609.039 99.3602 609.039 99.3602L606.179 101.81" stroke="black" stroke-width="13" stroke-miterlimit="10" stroke-linecap="round"/>
<path id="Vector_16" d="M409.619 147.13C407.759 111.67 418.739 79.6101 427.129 56.3601C435.519 33.1101 459.319 14.9301 498.669 23.8301C538.019 32.7301 519.689 65.4601 519.689 65.4601" stroke="black" stroke-width="13" stroke-miterlimit="10" stroke-linecap="round"/>
<path id="Vector_17" d="M429.948 49.8802C429.948 49.8802 437.688 11.7102 389.798 6.7802C341.898 1.8502 321.738 63.9502 321.738 63.9502C321.738 63.9502 309.858 102.26 317.038 155.36" stroke="black" stroke-width="13" stroke-miterlimit="10" stroke-linecap="round"/>
<path id="Vector_18" d="M318.309 79.1203C318.309 79.1203 312.329 8.67027 256.419 20.3703C211.459 29.7803 195.559 83.0203 202.679 127.86C207.859 160.45 215.069 191.91 218.629 206.67C219.959 212.17 219.919 217.9 218.559 223.39C212.029 249.74 196.759 337 253.479 421.16C309.799 504.72 305.749 569.19 302.749 588.68C301.829 594.67 302.469 600.81 304.659 606.46C312.039 625.49 336.389 658.76 414.729 635.09C520.829 603.04 578.829 421.33 578.829 421.33C578.829 421.33 619.659 275.19 618.289 256.38C618.229 255.62 618.179 254.85 618.189 254.08L618.209 252.24C618.309 244.24 621.129 236.52 626.219 230.35C647.789 204.2 703.159 129.33 653.639 103.81C593.229 72.6803 566.429 150.62 561.249 174.91" stroke="black" stroke-width="13" stroke-miterlimit="10" stroke-linecap="round"/>
<path id="Vector_19" d="M280.078 171.24C280.078 171.24 307.398 152.44 340.258 158.72" stroke="black" stroke-width="13" stroke-miterlimit="10" stroke-linecap="round"/>
<path id="Vector_20" d="M378.248 153.65C378.248 153.65 412.058 145.03 435.288 154.57" stroke="black" stroke-width="13" stroke-miterlimit="10" stroke-linecap="round"/>
<path id="Vector_21" d="M469.689 157.81C469.689 157.81 494.279 155.89 510.189 166.32" stroke="black" stroke-width="13" stroke-miterlimit="10" stroke-linecap="round"/>
<path id="Vector_22" d="M543.76 176.05C543.76 176.05 560.35 173.22 575.38 185.4" stroke="black" stroke-width="13" stroke-miterlimit="10" stroke-linecap="round"/>
</g>
<path id="Vector_23" d="M123.748 295.51L89.168 340.77C89.168 340.77 85.308 345.28 99.788 345.6C114.278 345.92 217.158 335.51 217.158 335.51L242.098 402.54C242.098 402.54 139.828 410.18 50.988 408.83C-7.31204 407.94 -3.99204 372.56 5.18796 348.33C9.26796 337.56 15.158 327.57 22.378 318.6L76.948 250.84C76.948 250.84 82.018 292.83 123.748 295.52V295.51Z" fill="black"/>
<path id="Vector_24" d="M743.258 289.5L764.398 319.15C764.398 319.15 768.888 323.66 752.058 323.98C735.228 324.3 615.778 313.89 615.778 313.89L586.818 380.92C586.818 380.92 705.568 388.56 808.718 387.21C876.408 386.32 872.548 350.94 861.898 326.71C857.158 315.94 850.328 305.95 841.938 296.98L774.828 228.02C774.828 228.02 774.828 270.35 743.248 289.49L743.258 289.5Z" fill="black"/>
<path id="Vector_25" d="M191.408 760.3C191.408 760.3 207.408 739.21 235.758 763.2C264.108 787.19 255.378 791.3 255.378 791.3L252.358 806.44L273.468 810.8L280.388 805.43C280.388 805.43 298.268 827.43 277.418 845.31L258.708 873.42L254.798 894.04L243.918 909.34L213.058 915.52L144.258 896.76L96.2478 868.3L65.7278 845.15L47.2578 801.97L54.7878 791.38L64.1578 778.19L75.4078 771.13L103.638 758.61L133.168 760.93L144.868 758.19L165.238 764.85L179.568 759.12L191.398 760.3H191.408Z" fill="white"/>
<path id="Vector_26" d="M620.668 775.44C620.668 775.44 606.248 753.23 576.118 775.15C545.988 797.07 554.408 801.79 554.408 801.79L556.288 817.12L534.858 819.95L528.338 814.09C528.338 814.09 508.808 834.77 528.318 854.11L544.918 883.52L547.288 904.39L557.018 920.44L587.408 928.82L657.588 915.04L707.708 890.07L739.948 869.15L761.648 827.37L754.918 816.26L746.538 802.42L735.818 794.56L708.538 780.03L678.838 780.23L667.348 776.65L646.488 781.84L632.598 775.09L620.678 775.42L620.668 775.44Z" fill="white"/>
<path id="Vector_27" d="M67.0787 781.19C67.0787 781.19 96.1187 746.03 136.379 763.34C136.379 763.34 149.339 751.93 165.609 764.31C165.609 764.31 178.949 752.37 191.809 762.72C191.809 762.72 209.269 738.74 235.559 761.47C261.849 784.21 246.309 808.34 246.309 808.34C246.309 808.34 251.439 823.31 268.759 825.11L282.319 806.04C282.319 806.04 303.589 828.44 276.859 847.85C276.859 847.85 273.529 864.48 257.829 887.7C257.829 887.7 252.019 910.66 235.819 914.11C219.619 917.56 122.859 905.78 71.5887 849.92C71.5887 849.92 23.5387 803.73 67.0687 781.2L67.0787 781.19Z" stroke="black" stroke-width="13" stroke-linecap="round" stroke-linejoin="round"/>
<path id="Vector_28" d="M747.698 803.37C747.698 803.37 721.298 766.19 679.648 780.63C679.648 780.63 667.538 768.32 650.298 779.53C650.298 779.53 637.848 766.65 624.178 776.09C624.178 776.09 608.528 750.89 580.458 771.75C552.388 792.61 566.118 817.82 566.118 817.82C566.118 817.82 559.838 832.41 542.358 832.99L530.228 812.98C530.228 812.98 507.218 833.86 532.508 855.14C532.508 855.14 534.578 872 548.528 896.3C548.528 896.3 552.598 919.65 568.558 924.24C584.518 928.83 682.328 923.9 737.928 871.71C737.928 871.71 789.568 828.96 747.688 803.37H747.698Z" stroke="black" stroke-width="13" stroke-linecap="round" stroke-linejoin="round"/>
<path id="Vector_29" d="M181.518 759.73C181.518 759.73 215.828 781.63 221.168 808.16C222.278 813.66 220.688 819.47 216.678 823.39C213.288 826.7 208.368 828.44 202.238 822.1C199.538 819.31 197.678 815.83 196.588 812.11C194.198 803.92 182.118 782.96 161.148 763.46C161.148 763.46 210.718 815.17 187.258 823.89C187.258 823.89 177.808 829 168.198 810.34C158.588 791.68 153.558 780.34 138.398 761.9" stroke="black" stroke-width="7" stroke-linecap="round" stroke-linejoin="round"/>
<path id="Vector_30" d="M221.309 814.25C221.309 814.25 230.279 820.94 244.669 803.43" stroke="black" stroke-width="7" stroke-linecap="round" stroke-linejoin="round"/>
<path id="Vector_31" d="M124.367 759.58C124.367 759.58 193.177 794.27 153.427 863.7" stroke="black" stroke-width="7" stroke-linecap="round" stroke-linejoin="round"/>
<path id="Vector_32" d="M64.8574 782.41C64.8574 782.41 74.0774 839.23 150.657 867.62C227.227 896.01 258.417 886.84 258.417 886.84" stroke="black" stroke-width="7" stroke-linecap="round" stroke-linejoin="round"/>
<path id="Vector_33" d="M632.888 774.56C632.888 774.56 597.388 793.7 590.278 819.67C588.798 825.06 589.968 830.96 593.688 835.17C596.818 838.72 601.578 840.83 608.078 835C610.938 832.43 613.028 829.12 614.358 825.5C617.288 817.53 630.688 797.62 652.808 779.85C652.808 779.85 600.138 827.45 622.788 837.94C622.788 837.94 631.798 843.75 642.608 825.93C653.418 808.11 659.168 797.22 675.458 780.06" stroke="black" stroke-width="7" stroke-linecap="round" stroke-linejoin="round"/>
<path id="Vector_34" d="M589.718 825.71C589.718 825.71 580.368 831.67 567.318 813.15" stroke="black" stroke-width="7" stroke-linecap="round" stroke-linejoin="round"/>
<path id="Vector_35" d="M689.518 778.82C689.518 778.82 618.958 808.01 653.578 880.13" stroke="black" stroke-width="7" stroke-linecap="round" stroke-linejoin="round"/>
<path id="Vector_36" d="M746.929 806.11C746.929 806.11 733.889 861.91 656.069 884.23C578.249 906.56 547.979 895.03 547.979 895.03" stroke="black" stroke-width="7" stroke-linecap="round" stroke-linejoin="round"/>
<path id="Vector_37" d="M310.989 606.47L221.309 751.68C221.309 751.68 252.819 762.61 250.869 790.73L246.309 808.34L268.759 825.11L282.319 806.04L351.629 640.99C351.629 640.99 317.719 627.06 310.979 606.47" fill="black"/>
<path id="Vector_38" d="M522.218 825.11L406.678 638.97C406.678 638.97 442.708 631.42 464.448 612.51L589.658 767.66C589.658 767.66 572.188 768.98 564.238 793.06C556.288 817.14 566.108 817.83 566.108 817.83L542.348 833L530.218 812.99L522.218 825.12V825.11Z" fill="black"/>
<path id="Vector_39" d="M378.248 348.6C388.686 348.6 397.148 336.185 397.148 320.87C397.148 305.555 388.686 293.14 378.248 293.14C367.809 293.14 359.348 305.555 359.348 320.87C359.348 336.185 367.809 348.6 378.248 348.6Z" fill="black"/>
<path id="Vector_40" d="M377.199 340.69C382.153 340.69 386.169 336.321 386.169 330.93C386.169 325.54 382.153 321.17 377.199 321.17C372.245 321.17 368.229 325.54 368.229 330.93C368.229 336.321 372.245 340.69 377.199 340.69Z" fill="#FFAFA3"/>
<path id="Vector_41" d="M323.318 216.91C323.318 216.91 342.568 203.91 367.938 216.91" stroke="black" stroke-width="13" stroke-miterlimit="10" stroke-linecap="round"/>
<path id="Vector_42" d="M401.207 218.75C401.207 218.75 419.657 207.92 443.077 218.75" stroke="black" stroke-width="13" stroke-miterlimit="10" stroke-linecap="round"/>
</g>
<defs>
<filter id="filter0_d_904_2408" x="202.068" y="7.64258" width="490.381" height="636.777" filterUnits="userSpaceOnUse" color-interpolation-filters="sRGB">
<feFlood flood-opacity="0" result="BackgroundImageFix"/>
<feColorMatrix in="SourceAlpha" type="matrix" values="0 0 0 0 0 0 0 0 0 0 0 0 0 0 0 0 0 0 127 0" result="hardAlpha"/>
<feOffset dx="19"/>
<feColorMatrix type="matrix" values="0 0 0 0 0 0 0 0 0 0 0 0 0 0 0 0 0 0 1 0"/>
<feBlend mode="normal" in2="BackgroundImageFix" result="effect1_dropShadow_904_2408"/>
<feBlend mode="normal" in="SourceGraphic" in2="effect1_dropShadow_904_2408" result="shape"/>
</filter>
</defs>
</svg>
