<svg width="537" height="922" viewBox="0 0 537 922" fill="none" xmlns="http://www.w3.org/2000/svg">
<g id="Calque 17">
<path id="Vector" d="M100.381 769.75C100.381 769.75 101.201 743.29 138.201 746.42C175.201 749.55 170.471 757.96 170.471 757.96L176.781 772.05L196.511 763.37L199.041 754.98C199.041 754.98 226.371 762.55 219.731 789.2L220.771 822.95L229.531 842.03V860.8L207.961 883.72L141.021 908.3L85.4008 912.92L47.1208 911.74L7.05078 887.25V858.08L12.1308 845.81L27.8808 819.24L53.2908 804.02L61.2408 795L81.7008 788.63L90.0608 775.66L100.391 769.77L100.381 769.75Z" fill="white"/>
<path id="Vector_2" d="M380.141 769.12C380.141 769.12 379.321 742.66 342.191 745.79C305.061 748.92 309.811 757.33 309.811 757.33L303.481 771.42L283.691 762.74L281.151 754.35C281.151 754.35 253.731 761.92 260.391 788.57L259.351 822.32L250.561 841.4V860.17L272.201 883.09L339.371 907.67L395.171 912.29L433.581 911.11L473.791 886.62V857.45L468.691 845.18L452.891 818.61L427.391 803.39L419.421 794.37L398.891 788L390.501 775.03L380.141 769.14V769.12Z" fill="white"/>
<g id="body" filter="url(#filter0_d_904_2454)">
<path d="M272.271 57.4903C280.671 34.2403 304.461 16.0603 343.811 24.9603C383.161 33.8703 364.831 66.5903 364.831 66.5903L358.071 78.2403C373.951 46.2603 397.071 35.9903 430.331 48.1903C463.591 60.3903 454.181 100.48 454.181 100.48L451.321 102.93C451.321 102.93 466.311 83.9103 498.801 104.95C545.561 135.23 492.951 205.34 471.381 231.49C466.291 237.66 463.471 245.39 463.371 253.38L463.351 255.22C463.351 255.99 463.391 256.75 463.451 257.52C464.821 276.33 423.991 422.47 423.991 422.47C423.991 422.47 365.991 604.18 259.891 636.23C181.541 659.9 157.201 626.62 149.821 607.6C147.631 601.95 146.981 595.81 147.911 589.82C150.911 570.33 154.961 505.86 98.6409 422.3C41.9209 338.15 57.1909 250.88 63.7209 224.53C65.0809 219.04 65.1109 213.31 63.7909 207.81C60.2309 193.05 53.0109 161.59 47.8409 129C40.7209 84.1603 56.6209 30.9203 101.581 21.5103C157.481 9.81026 163.471 80.2603 163.471 80.2603C165.191 70.5703 166.891 65.0903 166.891 65.0903C166.891 65.0903 187.061 3.00026 234.951 7.92026C282.851 12.8503 275.101 51.0203 275.101 51.0203" fill="#FFAFA3"/>
</g>
<g id="Group">
<path id="Vector_3" d="M336.441 155.14C336.441 155.14 341.201 109.09 357.081 77.1202C372.961 45.1402 396.081 34.8702 429.341 47.0702C462.601 59.2702 453.191 99.3602 453.191 99.3602L450.331 101.81" stroke="black" stroke-width="13" stroke-miterlimit="10" stroke-linecap="round"/>
<path id="Vector_4" d="M253.761 147.13C251.901 111.67 262.881 79.6101 271.271 56.3601C279.661 33.1101 303.461 14.9301 342.811 23.8301C382.161 32.7401 363.831 65.4601 363.831 65.4601" stroke="black" stroke-width="13" stroke-miterlimit="10" stroke-linecap="round"/>
<path id="Vector_5" d="M274.101 49.8802C274.101 49.8802 281.841 11.7102 233.951 6.7802C186.061 1.8502 165.891 63.9502 165.891 63.9502C165.891 63.9502 154.011 102.26 161.191 155.36" stroke="black" stroke-width="13" stroke-miterlimit="10" stroke-linecap="round"/>
<path id="Vector_6" d="M162.461 79.1203C162.461 79.1203 156.481 8.67027 100.571 20.3703C55.6111 29.7803 39.7111 83.0203 46.8311 127.86C52.0111 160.45 59.2211 191.91 62.7811 206.67C64.1111 212.17 64.0711 217.9 62.7111 223.39C56.1811 249.74 40.9111 337 97.6311 421.16C153.951 504.72 149.901 569.19 146.901 588.68C145.981 594.67 146.621 600.81 148.811 606.46C156.191 625.49 180.541 658.76 258.881 635.09C364.981 603.04 422.981 421.33 422.981 421.33C422.981 421.33 463.811 275.19 462.441 256.38C462.381 255.62 462.331 254.85 462.341 254.08L462.361 252.24C462.461 244.24 465.281 236.52 470.371 230.35C491.941 204.2 547.311 129.33 497.791 103.81C437.381 72.6803 410.581 150.62 405.401 174.91" stroke="black" stroke-width="13" stroke-miterlimit="10" stroke-linecap="round"/>
<path id="Vector_7" d="M124.23 171.24C124.23 171.24 151.55 152.44 184.41 158.72" stroke="black" stroke-width="13" stroke-miterlimit="10" stroke-linecap="round"/>
<path id="Vector_8" d="M222.391 153.65C222.391 153.65 256.201 145.03 279.431 154.57" stroke="black" stroke-width="13" stroke-miterlimit="10" stroke-linecap="round"/>
<path id="Vector_9" d="M313.842 157.81C313.842 157.81 338.432 155.89 354.342 166.32" stroke="black" stroke-width="13" stroke-miterlimit="10" stroke-linecap="round"/>
<path id="Vector_10" d="M387.91 176.05C387.91 176.05 404.5 173.22 419.53 185.4" stroke="black" stroke-width="13" stroke-miterlimit="10" stroke-linecap="round"/>
</g>
<path id="Vector_11" d="M140.211 226.34C140.211 226.34 151.011 212.8 176.651 213.05C202.291 213.29 207.081 227.54 207.081 227.54" stroke="black" stroke-width="13" stroke-miterlimit="10" stroke-linecap="round"/>
<path id="Vector_12" d="M315.051 236.94C315.051 236.94 306.171 222.92 281.211 219.05C256.261 215.18 249.891 227.35 249.891 227.35" stroke="black" stroke-width="13" stroke-miterlimit="10" stroke-linecap="round"/>
<path id="Vector_13" d="M11.1514 858.83C11.1514 858.83 14.4514 813.35 57.2914 804.12C57.2914 804.12 61.2414 787.31 81.6814 787.97C81.6814 787.97 85.6314 770.5 102.111 771.49C102.111 771.49 102.441 741.83 137.041 745.12C171.641 748.42 172.961 777.09 172.961 777.09C172.961 777.09 185.811 786.32 200.971 777.75V754.35C200.971 754.35 231.291 760.28 220.741 791.59C220.741 791.59 227.661 807.08 228.321 835.09C228.321 835.09 236.891 857.17 225.681 869.37C214.471 881.56 128.791 928.03 54.6314 912.21C54.6314 912.21 -11.2886 902.41 11.1314 858.82L11.1514 858.83Z" stroke="black" stroke-width="13" stroke-linecap="round" stroke-linejoin="round"/>
<path id="Vector_14" d="M474.32 858.83C474.32 858.83 471 813.35 427.9 804.12C427.9 804.12 423.92 787.31 403.36 787.97C403.36 787.97 399.38 770.5 382.8 771.49C382.8 771.49 382.47 741.83 347.65 745.12C312.84 748.42 311.51 777.09 311.51 777.09C311.51 777.09 298.58 786.32 283.33 777.75V754.35C283.33 754.35 252.83 760.28 263.44 791.59C263.44 791.59 256.48 807.08 255.81 835.09C255.81 835.09 247.19 857.17 258.46 869.37C269.73 881.56 355.94 928.03 430.54 912.21C430.54 912.21 496.86 902.41 474.31 858.82L474.32 858.83Z" stroke="black" stroke-width="13" stroke-linecap="round" stroke-linejoin="round"/>
<path id="Vector_15" d="M91.9913 775.03C91.9913 775.03 132.641 773 152.371 791.53C156.461 795.37 158.541 801.02 157.541 806.55C156.701 811.21 153.691 815.48 145.021 813.86C141.211 813.15 137.671 811.4 134.631 808.99C127.931 803.69 105.951 793.61 77.5513 789.87C77.5513 789.87 147.911 803.29 133.851 824C133.851 824 129.111 833.64 110.461 824C91.8113 814.36 81.1513 808.03 58.1113 801.79" stroke="black" stroke-width="7" stroke-linecap="round" stroke-linejoin="round"/>
<path id="Vector_16" d="M156.01 796.4C156.01 796.4 167.2 796.65 168.78 774.05" stroke="black" stroke-width="7" stroke-linecap="round" stroke-linejoin="round"/>
<path id="Vector_17" d="M45.3301 808.01C45.3301 808.01 121.51 796.41 129.35 876.03" stroke="black" stroke-width="7" stroke-linecap="round" stroke-linejoin="round"/>
<path id="Vector_18" d="M10.041 861.1C10.041 861.1 50.481 902.06 129.341 880.83C208.201 859.6 228.301 834.05 228.301 834.05" stroke="black" stroke-width="7" stroke-linecap="round" stroke-linejoin="round"/>
<path id="Vector_19" d="M391.051 774.7C391.051 774.7 350.781 772.67 331.231 791.2C327.181 795.04 325.121 800.69 326.111 806.22C326.951 810.88 329.931 815.15 338.511 813.53C342.291 812.82 345.791 811.07 348.811 808.66C355.441 803.36 377.231 793.28 405.361 789.54C405.361 789.54 335.651 802.96 349.591 823.67C349.591 823.67 354.291 833.31 372.761 823.67C391.241 814.03 401.801 807.7 424.621 801.46" stroke="black" stroke-width="7" stroke-linecap="round" stroke-linejoin="round"/>
<path id="Vector_20" d="M327.63 796.07C327.63 796.07 316.55 796.32 314.98 773.72" stroke="black" stroke-width="7" stroke-linecap="round" stroke-linejoin="round"/>
<path id="Vector_21" d="M437.281 807.68C437.281 807.68 361.811 796.08 354.041 875.7" stroke="black" stroke-width="7" stroke-linecap="round" stroke-linejoin="round"/>
<path id="Vector_22" d="M472.24 860.78C472.24 860.78 432.18 901.74 354.05 880.51C275.92 859.28 256.01 833.73 256.01 833.73" stroke="black" stroke-width="7" stroke-linecap="round" stroke-linejoin="round"/>
<path id="Vector_23" d="M284.871 623.9V779.96C284.871 779.96 300.751 792.81 314.981 779.96C314.981 779.96 306.581 747.98 347.661 745.13L344.091 573.52C344.091 573.52 329.181 601.47 284.871 623.9Z" fill="black"/>
<path id="Vector_24" d="M137.051 745.13L145.061 600.94C145.061 600.94 153.201 632.96 201.591 643.29V776.11C201.591 776.11 191.871 790.67 169.321 779.11C169.321 779.11 177.441 753.13 137.051 745.13Z" fill="black"/>
<path id="Vector_25" d="M179.6 379.37C179.6 379.37 223.07 373.77 228.73 423.17C234.4 472.57 218.82 482.76 200.86 487.72C200.86 487.72 183.96 496.96 177.45 510.95C170.94 524.94 132.88 535.23 132.88 535.23C132.88 535.23 102.54 543.76 82.6803 508.64L72.0003 489.64C72.0003 489.64 57.3603 477.2 64.4803 453.7C64.4803 453.7 53.4103 426.06 64.8703 405.81C64.8703 405.81 78.6803 390.18 88.6003 392.92C88.6003 392.92 79.5803 338.58 179.58 379.35L179.6 379.37Z" fill="white"/>
<path id="Vector_26" d="M168.521 378.7C168.521 378.7 205.631 363.38 222.531 407.09C239.431 450.8 223.911 474.56 204.501 480.82" stroke="black" stroke-width="13" stroke-miterlimit="10" stroke-linecap="round"/>
<path id="Vector_27" d="M194.781 423.13C194.781 423.13 178.261 362.41 124.871 363.44C124.871 363.44 97.4809 361.77 89.7609 379.8C86.2209 388.05 88.3909 397.6 94.6309 404.06C100.441 410.08 109.951 414.19 122.811 400.97" stroke="black" stroke-width="13" stroke-miterlimit="10" stroke-linecap="round"/>
<path id="Vector_28" d="M116.941 406C116.941 406 128.581 405.42 133.941 408.61" stroke="black" stroke-width="13" stroke-miterlimit="10" stroke-linecap="round"/>
<path id="Vector_29" d="M89.2115 395.08C89.2115 395.08 63.9915 394.08 60.4715 416.99C56.9515 439.91 66.6515 456.44 97.9215 468.64" stroke="black" stroke-width="13" stroke-miterlimit="10" stroke-linecap="round"/>
<path id="Vector_30" d="M66.8003 447.72C66.8003 447.72 41.8302 496.74 110.05 507.47" stroke="black" stroke-width="13" stroke-miterlimit="10" stroke-linecap="round"/>
<path id="Vector_31" d="M80.7305 497.98C80.7305 497.98 86.4305 544.81 135.36 534.77C147.48 532.28 158.81 526.82 168.44 519.05C181.73 508.34 199.52 489.19 199.24 463.55" stroke="black" stroke-width="13" stroke-miterlimit="10" stroke-linecap="round"/>
<path id="Vector_32" d="M446.15 334.04C446.15 334.04 537.03 375.73 487.96 404.72C438.89 433.71 222.59 474.13 222.59 474.13C222.59 474.13 226.62 418.36 191.48 394.79C191.48 394.79 426.04 367.65 437.48 367.23C448.93 366.81 446.14 334.05 446.14 334.05L446.15 334.04Z" fill="black"/>
<path id="Vector_33" d="M57.7306 315.14C57.7306 315.14 -27.9394 356.83 18.3106 385.82C64.5606 414.81 268.471 455.23 268.471 455.23C268.471 455.23 264.671 399.46 297.801 375.89C297.801 375.89 76.6906 348.75 65.9006 348.33C55.1106 347.91 57.7306 315.15 57.7306 315.15V315.14Z" fill="black"/>
<path id="Vector_34" d="M312.371 376.95C312.371 376.95 264.901 362.13 247.231 409.18C229.561 456.23 244.691 469.54 263.701 478.24C263.701 478.24 280.531 490.9 284.631 505.97C288.731 521.04 329.051 539.28 329.051 539.28C329.051 539.28 361.121 554.14 391.431 524.1L407.761 507.84C407.761 507.84 427.031 498.83 424.421 474.34C424.421 474.34 443.161 449.72 434.951 427.47C434.951 427.47 423.041 409.23 411.281 409.77C411.281 409.77 433.841 358.61 312.351 376.94L312.371 376.95Z" fill="white"/>
<path id="Vector_35" d="M314.911 380.3C314.911 380.3 274.121 361.25 250.501 403.03C226.871 444.8 242.201 470.03 263.711 478.25" stroke="black" stroke-width="13" stroke-miterlimit="10" stroke-linecap="round"/>
<path id="Vector_36" d="M285.32 416.44C285.32 416.44 317.76 360.66 377.4 373.15C377.4 373.15 408.5 377.41 413.03 396.69C415.11 405.51 410.49 414.37 402.02 419.34C394.12 423.98 382.52 425.95 371.13 410.26" stroke="black" stroke-width="13" stroke-miterlimit="10" stroke-linecap="round"/>
<path id="Vector_37" d="M410.142 411.74C410.142 411.74 438.652 416.18 437.352 439.33C436.052 462.48 421.381 476.55 383.521 481.74" stroke="black" stroke-width="13" stroke-miterlimit="10" stroke-linecap="round"/>
<path id="Vector_38" d="M423.221 468C423.221 468 440.001 521.27 361.021 517.08" stroke="black" stroke-width="13" stroke-miterlimit="10" stroke-linecap="round"/>
<path id="Vector_39" d="M396.091 514.1C396.091 514.1 378.972 558.63 326.392 538.29C313.372 533.25 301.922 525.48 292.892 515.82C280.442 502.5 264.881 479.96 271.061 454.96" stroke="black" stroke-width="13" stroke-miterlimit="10" stroke-linecap="round"/>
<path id="Vector_40" d="M176.811 291.29L267.161 297.42" stroke="black" stroke-width="13" stroke-miterlimit="10" stroke-linecap="round"/>
</g>
<defs>
<filter id="filter0_d_904_2454" x="46.2109" y="7.64258" width="490.381" height="636.777" filterUnits="userSpaceOnUse" color-interpolation-filters="sRGB">
<feFlood flood-opacity="0" result="BackgroundImageFix"/>
<feColorMatrix in="SourceAlpha" type="matrix" values="0 0 0 0 0 0 0 0 0 0 0 0 0 0 0 0 0 0 127 0" result="hardAlpha"/>
<feOffset dx="19"/>
<feColorMatrix type="matrix" values="0 0 0 0 0 0 0 0 0 0 0 0 0 0 0 0 0 0 1 0"/>
<feBlend mode="normal" in2="BackgroundImageFix" result="effect1_dropShadow_904_2454"/>
<feBlend mode="normal" in="SourceGraphic" in2="effect1_dropShadow_904_2454" result="shape"/>
</filter>
</defs>
</svg>
